Interstate-Condensed_Italic.ufo
<glyph name="exclam" format="1">
  <advance width="248"/>
  <unicode hex="0021"/>
  <outline>
    <contour>
      <point x="166" y="352" type="line"/>
      <point x="124" y="202" type="line"/>
      <point x="58" y="202" type="line"/>
      <point x="68" y="352" type="line"/>
      <point x="129" y="700" type="line"/>
      <point x="227" y="700" type="line"/>
    </contour>
    <contour>
      <point x="136" y="59" type="curve" smooth="yes"/>
      <point x="136" y="20"/>
      <point x="105" y="-11"/>
      <point x="66" y="-11" type="curve" smooth="yes"/>
      <point x="27" y="-11"/>
      <point x="-4" y="20"/>
      <point x="-4" y="59" type="curve" smooth="yes"/>
      <point x="-4" y="98"/>
      <point x="27" y="130"/>
      <point x="66" y="130" type="curve" smooth="yes"/>
      <point x="105" y="130"/>
      <point x="136" y="98"/>
    </contour>
  </outline>
</glyph>
<glyph name="quotedbl" format="1">
  <advance width="402"/>
  <unicode hex="0022"/>
  <outline>
    <contour>
      <point x="408" y="700" type="line"/>
      <point x="326" y="373" type="line"/>
      <point x="259" y="373" type="line"/>
      <point x="291" y="700" type="line"/>
    </contour>
    <contour>
      <point x="207" y="700" type="line"/>
      <point x="125" y="373" type="line"/>
      <point x="58" y="373" type="line"/>
      <point x="90" y="700" type="line"/>
    </contour>
  </outline>
</glyph>
<glyph name="numbersign" format="1">
  <advance width="599"/>
  <unicode hex="0023"/>
  <outline>
    <contour>
      <point x="521" y="160" type="line"/>
      <point x="426" y="160" type="line"/>
      <point x="398" y="0" type="line"/>
      <point x="305" y="0" type="line"/>
      <point x="333" y="160" type="line"/>
      <point x="199" y="160" type="line"/>
      <point x="171" y="0" type="line"/>
      <point x="78" y="0" type="line"/>
      <point x="106" y="160" type="line"/>
      <point x="11" y="160" type="line"/>
      <point x="27" y="250" type="line"/>
      <point x="122" y="250" type="line"/>
      <point x="157" y="450" type="line"/>
      <point x="62" y="450" type="line"/>
      <point x="78" y="540" type="line"/>
      <point x="173" y="540" type="line"/>
      <point x="201" y="700" type="line"/>
      <point x="294" y="700" type="line"/>
      <point x="266" y="540" type="line"/>
      <point x="400" y="540" type="line"/>
      <point x="428" y="700" type="line"/>
      <point x="521" y="700" type="line"/>
      <point x="493" y="540" type="line"/>
      <point x="588" y="540" type="line"/>
      <point x="572" y="450" type="line"/>
      <point x="477" y="450" type="line"/>
      <point x="442" y="250" type="line"/>
      <point x="537" y="250" type="line"/>
    </contour>
    <contour>
      <point x="349" y="250" type="line"/>
      <point x="384" y="450" type="line"/>
      <point x="250" y="450" type="line"/>
      <point x="215" y="250" type="line"/>
    </contour>
  </outline>
</glyph>
<glyph name="dollar" format="1">
  <advance width="443"/>
  <unicode hex="0024"/>
  <outline>
    <contour>
      <point x="202" y="4" type="curve"/>
      <point x="187" y="-80" type="line"/>
      <point x="95" y="-80" type="line"/>
      <point x="110" y="4" type="line"/>
      <point x="55" y="15"/>
      <point x="10" y="58"/>
      <point x="-13" y="113" type="curve"/>
      <point x="68" y="171" type="line"/>
      <point x="89" y="117"/>
      <point x="132" y="86"/>
      <point x="175" y="86" type="curve" smooth="yes"/>
      <point x="233" y="86"/>
      <point x="281" y="126"/>
      <point x="281" y="197" type="curve" smooth="yes"/>
      <point x="281" y="240"/>
      <point x="255" y="274"/>
      <point x="185" y="327" type="curve" smooth="yes"/>
      <point x="125" y="372"/>
      <point x="76" y="412"/>
      <point x="76" y="498" type="curve" smooth="yes"/>
      <point x="76" y="607"/>
      <point x="137" y="677"/>
      <point x="231" y="694" type="curve"/>
      <point x="247" y="780" type="line"/>
      <point x="339" y="780" type="line"/>
      <point x="324" y="697" type="line"/>
      <point x="376" y="689"/>
      <point x="412" y="655"/>
      <point x="438" y="606" type="curve"/>
      <point x="362" y="548" type="line"/>
      <point x="340" y="591"/>
      <point x="309" y="613"/>
      <point x="265" y="613" type="curve" smooth="yes"/>
      <point x="205" y="613"/>
      <point x="171" y="572"/>
      <point x="171" y="516" type="curve" smooth="yes"/>
      <point x="171" y="473"/>
      <point x="194" y="444"/>
      <point x="255" y="400" type="curve" smooth="yes"/>
      <point x="325" y="349"/>
      <point x="378" y="305"/>
      <point x="378" y="216" type="curve" smooth="yes"/>
      <point x="378" y="109"/>
      <point x="309" y="23"/>
    </contour>
  </outline>
</glyph>
<glyph name="ampersand" format="1">
  <advance width="480"/>
  <unicode hex="0026"/>
  <outline>
    <contour>
      <point x="418" y="0" type="line"/>
      <point x="317" y="0" type="line"/>
      <point x="292" y="59" type="line"/>
      <point x="253" y="17"/>
      <point x="208" y="-11"/>
      <point x="147" y="-11" type="curve" smooth="yes"/>
      <point x="50" y="-11"/>
      <point x="6" y="53"/>
      <point x="6" y="132" type="curve" smooth="yes"/>
      <point x="6" y="240"/>
      <point x="65" y="311"/>
      <point x="160" y="378" type="curve"/>
      <point x="148" y="408" type="line" smooth="yes"/>
      <point x="128" y="458"/>
      <point x="115" y="495"/>
      <point x="115" y="535" type="curve" smooth="yes"/>
      <point x="115" y="640"/>
      <point x="190" y="711"/>
      <point x="296" y="711" type="curve" smooth="yes"/>
      <point x="362" y="711"/>
      <point x="411" y="688"/>
      <point x="449" y="655" type="curve"/>
      <point x="388" y="575" type="line"/>
      <point x="355" y="602"/>
      <point x="327" y="619"/>
      <point x="285" y="619" type="curve" smooth="yes"/>
      <point x="230" y="619"/>
      <point x="212" y="582"/>
      <point x="212" y="540" type="curve" smooth="yes"/>
      <point x="212" y="517"/>
      <point x="218" y="493"/>
      <point x="230" y="463" type="curve" smooth="yes"/>
      <point x="317" y="246" type="line"/>
      <point x="332" y="276"/>
      <point x="347" y="311"/>
      <point x="363" y="351" type="curve"/>
      <point x="439" y="329" type="line"/>
      <point x="411" y="258"/>
      <point x="383" y="199"/>
      <point x="356" y="151" type="curve"/>
    </contour>
    <contour>
      <point x="260" y="139" type="curve"/>
      <point x="191" y="305" type="line"/>
      <point x="130" y="257"/>
      <point x="105" y="201"/>
      <point x="105" y="154" type="curve" smooth="yes"/>
      <point x="105" y="112"/>
      <point x="129" y="81"/>
      <point x="169" y="81" type="curve" smooth="yes"/>
      <point x="205" y="81"/>
      <point x="238" y="102"/>
    </contour>
  </outline>
</glyph>
<glyph name="quotesingle" format="1">
  <advance width="201"/>
  <unicode hex="0027"/>
  <outline>
    <contour>
      <point x="207" y="700" type="line"/>
      <point x="125" y="373" type="line"/>
      <point x="58" y="373" type="line"/>
      <point x="90" y="700" type="line"/>
    </contour>
  </outline>
</glyph>
<glyph name="parenleft" format="1">
  <advance width="310"/>
  <unicode hex="0028"/>
  <outline>
    <contour>
      <point x="214" y="-70" type="curve"/>
      <point x="154" y="-110" type="line"/>
      <point x="94" y="-20"/>
      <point x="46" y="73"/>
      <point x="46" y="204" type="curve" smooth="yes"/>
      <point x="47" y="402"/>
      <point x="139" y="564"/>
      <point x="299" y="716" type="curve"/>
      <point x="345" y="676" type="line"/>
      <point x="209" y="539"/>
      <point x="144" y="356"/>
      <point x="144" y="186" type="curve" smooth="yes"/>
      <point x="144" y="84"/>
      <point x="171" y="5"/>
    </contour>
  </outline>
</glyph>
<glyph name="parenright" format="1">
  <advance width="310"/>
  <unicode hex="0029"/>
  <outline>
    <contour>
      <point x="-8" y="-110" type="curve"/>
      <point x="-54" y="-70" type="line"/>
      <point x="87" y="81"/>
      <point x="147" y="250"/>
      <point x="147" y="421" type="curve" smooth="yes"/>
      <point x="147" y="523"/>
      <point x="120" y="601"/>
      <point x="77" y="676" type="curve"/>
      <point x="137" y="716" type="line"/>
      <point x="197" y="627"/>
      <point x="245" y="534"/>
      <point x="245" y="404" type="curve" smooth="yes"/>
      <point x="244" y="211"/>
      <point x="158" y="48"/>
    </contour>
  </outline>
</glyph>
<glyph name="asterisk" format="1">
  <advance width="429"/>
  <unicode hex="002A"/>
  <outline>
    <contour>
      <point x="420" y="462" type="line"/>
      <point x="379" y="391" type="line"/>
      <point x="264" y="473" type="line"/>
      <point x="279" y="333" type="line"/>
      <point x="199" y="333" type="line"/>
      <point x="213" y="474" type="line"/>
      <point x="98" y="391" type="line"/>
      <point x="57" y="462" type="line"/>
      <point x="185" y="519" type="line"/>
      <point x="58" y="577" type="line"/>
      <point x="99" y="647" type="line"/>
      <point x="213" y="563" type="line"/>
      <point x="199" y="703" type="line"/>
      <point x="279" y="703" type="line"/>
      <point x="264" y="566" type="line"/>
      <point x="378" y="648" type="line"/>
      <point x="419" y="577" type="line"/>
      <point x="288" y="519" type="line"/>
    </contour>
  </outline>
</glyph>
<glyph name="comma" format="1">
  <advance width="232"/>
  <unicode hex="002C"/>
  <outline>
    <contour>
      <point x="152" y="126" type="line"/>
      <point x="43" y="-113" type="line"/>
      <point x="-22" y="-113" type="line"/>
      <point x="33" y="126" type="line"/>
    </contour>
  </outline>
</glyph>
<glyph name="period" format="1">
  <advance width="232"/>
  <unicode hex="002E"/>
  <outline>
    <contour>
      <point x="137" y="59" type="curve" smooth="yes"/>
      <point x="137" y="20"/>
      <point x="106" y="-11"/>
      <point x="67" y="-11" type="curve" smooth="yes"/>
      <point x="28" y="-11"/>
      <point x="-3" y="20"/>
      <point x="-3" y="59" type="curve" smooth="yes"/>
      <point x="-3" y="98"/>
      <point x="28" y="130"/>
      <point x="67" y="130" type="curve" smooth="yes"/>
      <point x="106" y="130"/>
      <point x="137" y="98"/>
    </contour>
  </outline>
</glyph>
<glyph name="slash" format="1">
  <advance width="349"/>
  <unicode hex="002F"/>
  <outline>
    <contour>
      <point x="433" y="790" type="line"/>
      <point x="13" y="-90" type="line"/>
      <point x="-84" y="-90" type="line"/>
      <point x="336" y="790" type="line"/>
    </contour>
  </outline>
</glyph>
<glyph name="zero" format="1">
  <advance width="499"/>
  <unicode hex="0030"/>
  <outline>
    <contour>
      <point x="201" y="-11" type="curve" smooth="yes"/>
      <point x="86" y="-11"/>
      <point x="34" y="85"/>
      <point x="34" y="229" type="curve" smooth="yes"/>
      <point x="34" y="449"/>
      <point x="113" y="711"/>
      <point x="293" y="711" type="curve" smooth="yes"/>
      <point x="412" y="711"/>
      <point x="465" y="614"/>
      <point x="465" y="470" type="curve" smooth="yes"/>
      <point x="466" y="254"/>
      <point x="385" y="-11"/>
    </contour>
    <contour>
      <point x="367" y="462" type="curve" smooth="yes"/>
      <point x="367" y="549"/>
      <point x="345" y="615"/>
      <point x="284" y="615" type="curve" smooth="yes"/>
      <point x="171" y="615"/>
      <point x="132" y="367"/>
      <point x="132" y="237" type="curve" smooth="yes"/>
      <point x="132" y="150"/>
      <point x="153" y="85"/>
      <point x="213" y="85" type="curve" smooth="yes"/>
      <point x="322" y="85"/>
      <point x="367" y="320"/>
    </contour>
  </outline>
</glyph>
<glyph name="one" format="1">
  <advance width="275"/>
  <unicode hex="0031"/>
  <outline>
    <contour>
      <point x="135" y="0" type="line"/>
      <point x="38" y="0" type="line"/>
      <point x="135" y="551" type="line"/>
      <point x="41" y="551" type="line"/>
      <point x="53" y="619" type="line"/>
      <point x="118" y="627"/>
      <point x="154" y="647"/>
      <point x="178" y="700" type="curve"/>
      <point x="258" y="700" type="line"/>
    </contour>
  </outline>
</glyph>
<glyph name="two" format="1">
  <advance width="454"/>
  <unicode hex="0032"/>
  <outline>
    <contour>
      <point x="360" y="0" type="line"/>
      <point x="-12" y="0" type="line"/>
      <point x="36" y="212"/>
      <point x="108" y="296"/>
      <point x="254" y="400" type="curve" smooth="yes"/>
      <point x="317" y="445"/>
      <point x="347" y="482"/>
      <point x="347" y="538" type="curve" smooth="yes"/>
      <point x="347" y="585"/>
      <point x="322" y="613"/>
      <point x="274" y="613" type="curve" smooth="yes"/>
      <point x="232" y="613"/>
      <point x="195" y="591"/>
      <point x="150" y="555" type="curve"/>
      <point x="101" y="626" type="line"/>
      <point x="150" y="672"/>
      <point x="208" y="711"/>
      <point x="291" y="711" type="curve" smooth="yes"/>
      <point x="392" y="711"/>
      <point x="450" y="653"/>
      <point x="450" y="563" type="curve" smooth="yes"/>
      <point x="450" y="469"/>
      <point x="417" y="413"/>
      <point x="294" y="323" type="curve" smooth="yes"/>
      <point x="209" y="262"/>
      <point x="149" y="203"/>
      <point x="117" y="98" type="curve"/>
      <point x="377" y="98" type="line"/>
    </contour>
  </outline>
</glyph>
<glyph name="three" format="1">
  <advance width="450"/>
  <unicode hex="0033"/>
  <outline>
    <contour>
      <point x="160" y="-11" type="curve" smooth="yes"/>
      <point x="73" y="-11"/>
      <point x="13" y="30"/>
      <point x="-26" y="101" type="curve"/>
      <point x="57" y="162" type="line"/>
      <point x="87" y="104"/>
      <point x="123" y="84"/>
      <point x="171" y="84" type="curve" smooth="yes"/>
      <point x="235" y="84"/>
      <point x="292" y="131"/>
      <point x="292" y="222" type="curve" smooth="yes"/>
      <point x="292" y="290"/>
      <point x="255" y="323"/>
      <point x="174" y="323" type="curve" smooth="yes"/>
      <point x="151" y="323" type="line"/>
      <point x="168" y="417" type="line"/>
      <point x="193" y="417" type="line" smooth="yes"/>
      <point x="271" y="417"/>
      <point x="332" y="462"/>
      <point x="333" y="545" type="curve" smooth="yes"/>
      <point x="333" y="585"/>
      <point x="316" y="616"/>
      <point x="263" y="616" type="curve" smooth="yes"/>
      <point x="226" y="616"/>
      <point x="188" y="597"/>
      <point x="144" y="557" type="curve"/>
      <point x="96" y="626" type="line"/>
      <point x="150" y="676"/>
      <point x="209" y="711"/>
      <point x="282" y="711" type="curve" smooth="yes"/>
      <point x="376" y="711"/>
      <point x="433" y="655"/>
      <point x="433" y="568" type="curve" smooth="yes"/>
      <point x="433" y="456"/>
      <point x="370" y="405"/>
      <point x="304" y="377" type="curve"/>
      <point x="352" y="360"/>
      <point x="391" y="319"/>
      <point x="391" y="240" type="curve" smooth="yes"/>
      <point x="391" y="85"/>
      <point x="285" y="-11"/>
    </contour>
  </outline>
</glyph>
<glyph name="four" format="1">
  <advance width="475"/>
  <unicode hex="0034"/>
  <outline>
    <contour>
      <point x="412" y="169" type="line"/>
      <point x="364" y="169" type="line"/>
      <point x="334" y="0" type="line"/>
      <point x="239" y="0" type="line"/>
      <point x="269" y="169" type="line"/>
      <point x="-2" y="169" type="line"/>
      <point x="11" y="246" type="line"/>
      <point x="364" y="700" type="line"/>
      <point x="457" y="700" type="line"/>
      <point x="380" y="262" type="line"/>
      <point x="428" y="262" type="line"/>
    </contour>
    <contour>
      <point x="338" y="544" type="curve"/>
      <point x="317" y="515"/>
      <point x="295" y="484"/>
      <point x="268" y="450" type="curve" smooth="yes"/>
      <point x="181" y="339" type="line" smooth="yes"/>
      <point x="155" y="306"/>
      <point x="138" y="285"/>
      <point x="118" y="261" type="curve"/>
      <point x="138" y="261"/>
      <point x="138" y="262"/>
      <point x="154" y="262" type="curve" smooth="yes"/>
      <point x="285" y="262" type="line"/>
      <point x="317" y="444" type="line" smooth="yes"/>
      <point x="323" y="478"/>
      <point x="331" y="509"/>
    </contour>
  </outline>
</glyph>
<glyph name="five" format="1">
  <advance width="454"/>
  <unicode hex="0035"/>
  <outline>
    <contour>
      <point x="136" y="-11" type="curve" smooth="yes"/>
      <point x="65" y="-11"/>
      <point x="6" y="19"/>
      <point x="-29" y="65" type="curve"/>
      <point x="40" y="139" type="line"/>
      <point x="68" y="107"/>
      <point x="107" y="84"/>
      <point x="154" y="84" type="curve" smooth="yes"/>
      <point x="241" y="84"/>
      <point x="300" y="159"/>
      <point x="300" y="272" type="curve" smooth="yes"/>
      <point x="300" y="330"/>
      <point x="279" y="372"/>
      <point x="223" y="372" type="curve" smooth="yes"/>
      <point x="179" y="372"/>
      <point x="149" y="354"/>
      <point x="123" y="322" type="curve"/>
      <point x="42" y="338" type="line"/>
      <point x="123" y="700" type="line"/>
      <point x="454" y="700" type="line"/>
      <point x="438" y="604" type="line"/>
      <point x="197" y="604" type="line"/>
      <point x="159" y="441" type="line"/>
      <point x="187" y="457"/>
      <point x="211" y="467"/>
      <point x="252" y="467" type="curve" smooth="yes"/>
      <point x="351" y="467"/>
      <point x="399" y="403"/>
      <point x="399" y="294" type="curve" smooth="yes"/>
      <point x="399" y="113"/>
      <point x="302" y="-11"/>
    </contour>
  </outline>
</glyph>
<glyph name="six" format="1">
  <advance width="468"/>
  <unicode hex="0036"/>
  <outline>
    <contour>
      <point x="207" y="-11" type="curve" smooth="yes"/>
      <point x="107" y="-11"/>
      <point x="37" y="73"/>
      <point x="37" y="199" type="curve" smooth="yes"/>
      <point x="37" y="477"/>
      <point x="194" y="688"/>
      <point x="422" y="711" type="curve"/>
      <point x="409" y="619" type="line"/>
      <point x="289" y="604"/>
      <point x="202" y="512"/>
      <point x="164" y="387" type="curve"/>
      <point x="194" y="416"/>
      <point x="230" y="430"/>
      <point x="279" y="430" type="curve" smooth="yes"/>
      <point x="374" y="430"/>
      <point x="430" y="360"/>
      <point x="430" y="255" type="curve" smooth="yes"/>
      <point x="430" y="98"/>
      <point x="337" y="-11"/>
    </contour>
    <contour>
      <point x="335" y="237" type="curve" smooth="yes"/>
      <point x="335" y="298"/>
      <point x="304" y="339"/>
      <point x="246" y="339" type="curve" smooth="yes"/>
      <point x="177" y="339"/>
      <point x="129" y="276"/>
      <point x="129" y="183" type="curve" smooth="yes"/>
      <point x="129" y="124"/>
      <point x="159" y="82"/>
      <point x="216" y="82" type="curve" smooth="yes"/>
      <point x="288" y="82"/>
      <point x="335" y="146"/>
    </contour>
  </outline>
</glyph>
<glyph name="seven" format="1">
  <advance width="440"/>
  <unicode hex="0037"/>
  <outline>
    <contour>
      <point x="442" y="600" type="line"/>
      <point x="274" y="438"/>
      <point x="205" y="232"/>
      <point x="164" y="0" type="curve"/>
      <point x="66" y="0" type="line"/>
      <point x="110" y="249"/>
      <point x="189" y="452"/>
      <point x="338" y="605" type="curve"/>
      <point x="71" y="605" type="line"/>
      <point x="87" y="700" type="line"/>
      <point x="459" y="700" type="line"/>
    </contour>
  </outline>
</glyph>
<glyph name="eight" format="1">
  <advance width="478"/>
  <unicode hex="0038"/>
  <outline>
    <contour>
      <point x="208" y="-11" type="curve" smooth="yes"/>
      <point x="109" y="-11"/>
      <point x="29" y="60"/>
      <point x="29" y="176" type="curve" smooth="yes"/>
      <point x="29" y="277"/>
      <point x="81" y="346"/>
      <point x="142" y="383" type="curve"/>
      <point x="110" y="407"/>
      <point x="89" y="447"/>
      <point x="89" y="500" type="curve" smooth="yes"/>
      <point x="89" y="630"/>
      <point x="176" y="711"/>
      <point x="289" y="711" type="curve" smooth="yes"/>
      <point x="390" y="711"/>
      <point x="456" y="651"/>
      <point x="456" y="551" type="curve" smooth="yes"/>
      <point x="456" y="466"/>
      <point x="411" y="412"/>
      <point x="362" y="383" type="curve"/>
      <point x="402" y="352"/>
      <point x="428" y="305"/>
      <point x="428" y="240" type="curve" smooth="yes"/>
      <point x="428" y="89"/>
      <point x="327" y="-11"/>
    </contour>
    <contour>
      <point x="359" y="536" type="curve" smooth="yes"/>
      <point x="359" y="586"/>
      <point x="331" y="621"/>
      <point x="282" y="621" type="curve" smooth="yes"/>
      <point x="224" y="621"/>
      <point x="186" y="572"/>
      <point x="186" y="506" type="curve" smooth="yes"/>
      <point x="186" y="458"/>
      <point x="212" y="425"/>
      <point x="261" y="425" type="curve" smooth="yes"/>
      <point x="322" y="425"/>
      <point x="359" y="474"/>
    </contour>
    <contour>
      <point x="329" y="235" type="curve" smooth="yes"/>
      <point x="329" y="295"/>
      <point x="294" y="332"/>
      <point x="240" y="332" type="curve" smooth="yes"/>
      <point x="169" y="332"/>
      <point x="124" y="267"/>
      <point x="125" y="180" type="curve" smooth="yes"/>
      <point x="125" y="117"/>
      <point x="163" y="83"/>
      <point x="216" y="83" type="curve" smooth="yes"/>
      <point x="281" y="83"/>
      <point x="329" y="142"/>
    </contour>
  </outline>
</glyph>
<glyph name="nine" format="1">
  <advance width="468"/>
  <unicode hex="0039"/>
  <outline>
    <contour>
      <point x="57" y="-11" type="curve"/>
      <point x="70" y="81" type="line"/>
      <point x="192" y="96"/>
      <point x="279" y="194"/>
      <point x="315" y="313" type="curve"/>
      <point x="287" y="283"/>
      <point x="254" y="268"/>
      <point x="209" y="268" type="curve" smooth="yes"/>
      <point x="115" y="268"/>
      <point x="50" y="335"/>
      <point x="50" y="449" type="curve" smooth="yes"/>
      <point x="50" y="599"/>
      <point x="139" y="711"/>
      <point x="271" y="711" type="curve" smooth="yes"/>
      <point x="365" y="711"/>
      <point x="447" y="642"/>
      <point x="447" y="503" type="curve" smooth="yes"/>
      <point x="448" y="247"/>
      <point x="306" y="11"/>
    </contour>
    <contour>
      <point x="232" y="361" type="curve" smooth="yes"/>
      <point x="301" y="361"/>
      <point x="352" y="426"/>
      <point x="352" y="516" type="curve" smooth="yes"/>
      <point x="352" y="578"/>
      <point x="322" y="618"/>
      <point x="266" y="618" type="curve" smooth="yes"/>
      <point x="194" y="618"/>
      <point x="146" y="556"/>
      <point x="146" y="462" type="curve" smooth="yes"/>
      <point x="146" y="401"/>
      <point x="176" y="361"/>
    </contour>
  </outline>
</glyph>
<glyph name="colon" format="1">
  <advance width="232"/>
  <unicode hex="003A"/>
  <outline>
    <contour>
      <point x="204" y="465" type="curve" smooth="yes"/>
      <point x="204" y="426"/>
      <point x="173" y="395"/>
      <point x="134" y="395" type="curve" smooth="yes"/>
      <point x="95" y="395"/>
      <point x="64" y="426"/>
      <point x="64" y="465" type="curve" smooth="yes"/>
      <point x="64" y="504"/>
      <point x="95" y="536"/>
      <point x="134" y="536" type="curve" smooth="yes"/>
      <point x="173" y="536"/>
      <point x="204" y="504"/>
    </contour>
    <contour>
      <point x="137" y="59" type="curve" smooth="yes"/>
      <point x="137" y="20"/>
      <point x="106" y="-11"/>
      <point x="67" y="-11" type="curve" smooth="yes"/>
      <point x="28" y="-11"/>
      <point x="-3" y="20"/>
      <point x="-3" y="59" type="curve" smooth="yes"/>
      <point x="-3" y="98"/>
      <point x="28" y="130"/>
      <point x="67" y="130" type="curve" smooth="yes"/>
      <point x="106" y="130"/>
      <point x="137" y="98"/>
    </contour>
  </outline>
</glyph>
<glyph name="semicolon" format="1">
  <advance width="232"/>
  <unicode hex="003B"/>
  <outline>
    <contour>
      <point x="204" y="465" type="curve" smooth="yes"/>
      <point x="204" y="426"/>
      <point x="173" y="395"/>
      <point x="134" y="395" type="curve" smooth="yes"/>
      <point x="95" y="395"/>
      <point x="64" y="426"/>
      <point x="64" y="465" type="curve" smooth="yes"/>
      <point x="64" y="504"/>
      <point x="95" y="536"/>
      <point x="134" y="536" type="curve" smooth="yes"/>
      <point x="173" y="536"/>
      <point x="204" y="504"/>
    </contour>
    <contour>
      <point x="152" y="126" type="line"/>
      <point x="43" y="-113" type="line"/>
      <point x="-22" y="-113" type="line"/>
      <point x="33" y="126" type="line"/>
    </contour>
  </outline>
</glyph>
<glyph name="less" format="1">
  <advance width="324"/>
  <unicode hex="003C"/>
  <outline>
    <contour>
      <point x="278" y="90" type="line"/>
      <point x="37" y="300" type="line"/>
      <point x="37" y="388" type="line"/>
      <point x="278" y="598" type="line"/>
      <point x="278" y="478" type="line"/>
      <point x="121" y="345" type="line"/>
      <point x="278" y="211" type="line"/>
    </contour>
  </outline>
</glyph>
<glyph name="greater" format="1">
  <advance width="324"/>
  <unicode hex="003E"/>
  <outline>
    <contour>
      <point x="287" y="300" type="line"/>
      <point x="46" y="90" type="line"/>
      <point x="46" y="210" type="line"/>
      <point x="203" y="343" type="line"/>
      <point x="46" y="477" type="line"/>
      <point x="46" y="598" type="line"/>
      <point x="287" y="388" type="line"/>
    </contour>
  </outline>
</glyph>
<glyph name="question" format="1">
  <advance width="451"/>
  <unicode hex="003F"/>
  <outline>
    <contour>
      <point x="298" y="358" type="curve" smooth="yes"/>
      <point x="240" y="323"/>
      <point x="231" y="290"/>
      <point x="216" y="202" type="curve"/>
      <point x="115" y="202" type="line"/>
      <point x="135" y="319"/>
      <point x="152" y="368"/>
      <point x="257" y="430" type="curve" smooth="yes"/>
      <point x="305" y="458"/>
      <point x="333" y="495"/>
      <point x="332" y="543" type="curve" smooth="yes"/>
      <point x="332" y="588"/>
      <point x="301" y="612"/>
      <point x="254" y="612" type="curve" smooth="yes"/>
      <point x="204" y="612"/>
      <point x="160" y="590"/>
      <point x="104" y="543" type="curve"/>
      <point x="55" y="616" type="line"/>
      <point x="114" y="671"/>
      <point x="189" y="711"/>
      <point x="266" y="711" type="curve" smooth="yes"/>
      <point x="375" y="711"/>
      <point x="434" y="652"/>
      <point x="435" y="560" type="curve" smooth="yes"/>
      <point x="436" y="450"/>
      <point x="371" y="401"/>
    </contour>
    <contour>
      <point x="213" y="59" type="curve" smooth="yes"/>
      <point x="213" y="20"/>
      <point x="182" y="-11"/>
      <point x="143" y="-11" type="curve" smooth="yes"/>
      <point x="104" y="-11"/>
      <point x="73" y="20"/>
      <point x="73" y="59" type="curve" smooth="yes"/>
      <point x="73" y="98"/>
      <point x="104" y="130"/>
      <point x="143" y="130" type="curve" smooth="yes"/>
      <point x="182" y="130"/>
      <point x="213" y="98"/>
    </contour>
  </outline>
</glyph>
<glyph name="at" format="1">
  <advance width="646"/>
  <unicode hex="0040"/>
  <outline>
    <contour>
      <point x="601" y="360" type="curve" smooth="yes"/>
      <point x="601" y="201"/>
      <point x="552" y="154"/>
      <point x="484" y="154" type="curve" smooth="yes"/>
      <point x="444" y="154"/>
      <point x="416" y="179"/>
      <point x="402" y="214" type="curve"/>
      <point x="384" y="182"/>
      <point x="347" y="154"/>
      <point x="303" y="154" type="curve" smooth="yes"/>
      <point x="244" y="154"/>
      <point x="186" y="198"/>
      <point x="186" y="291" type="curve" smooth="yes"/>
      <point x="186" y="376"/>
      <point x="239" y="418"/>
      <point x="299" y="418" type="curve" smooth="yes"/>
      <point x="330" y="418"/>
      <point x="366" y="405"/>
      <point x="383" y="392" type="curve"/>
      <point x="383" y="443" type="line" smooth="yes"/>
      <point x="383" y="485"/>
      <point x="361" y="502"/>
      <point x="314" y="502" type="curve" smooth="yes"/>
      <point x="286" y="502"/>
      <point x="264" y="495"/>
      <point x="240" y="478" type="curve"/>
      <point x="218" y="527" type="line"/>
      <point x="247" y="547"/>
      <point x="285" y="561"/>
      <point x="320" y="561" type="curve" smooth="yes"/>
      <point x="397" y="561"/>
      <point x="442" y="522"/>
      <point x="442" y="441" type="curve" smooth="yes"/>
      <point x="442" y="273" type="line" smooth="yes"/>
      <point x="442" y="237"/>
      <point x="453" y="209"/>
      <point x="489" y="209" type="curve" smooth="yes"/>
      <point x="531" y="209"/>
      <point x="546" y="260"/>
      <point x="546" y="361" type="curve" smooth="yes"/>
      <point x="546" y="549"/>
      <point x="454" y="654"/>
      <point x="323" y="654" type="curve" smooth="yes"/>
      <point x="188" y="654"/>
      <point x="103" y="534"/>
      <point x="103" y="351" type="curve" smooth="yes"/>
      <point x="103" y="167"/>
      <point x="190" y="45"/>
      <point x="325" y="45" type="curve" smooth="yes"/>
      <point x="360" y="45"/>
      <point x="392" y="51"/>
      <point x="423" y="68" type="curve"/>
      <point x="443" y="21" type="line"/>
      <point x="400" y="-5"/>
      <point x="367" y="-11"/>
      <point x="323" y="-11" type="curve" smooth="yes"/>
      <point x="162" y="-11"/>
      <point x="45" y="131"/>
      <point x="45" y="350" type="curve" smooth="yes"/>
      <point x="45" y="569"/>
      <point x="162" y="711"/>
      <point x="323" y="711" type="curve" smooth="yes"/>
      <point x="487" y="711"/>
      <point x="601" y="571"/>
    </contour>
    <contour>
      <point x="383" y="268" type="curve"/>
      <point x="383" y="331" type="line"/>
      <point x="368" y="346"/>
      <point x="341" y="361"/>
      <point x="307" y="361" type="curve" smooth="yes"/>
      <point x="266" y="361"/>
      <point x="247" y="335"/>
      <point x="247" y="293" type="curve" smooth="yes"/>
      <point x="247" y="245"/>
      <point x="262" y="214"/>
      <point x="311" y="214" type="curve" smooth="yes"/>
      <point x="339" y="214"/>
      <point x="369" y="235"/>
    </contour>
  </outline>
</glyph>
<glyph name="A" format="1">
  <advance width="494"/>
  <unicode hex="0041"/>
  <outline>
    <contour>
      <point x="410" y="0" type="line"/>
      <point x="303" y="0" type="line"/>
      <point x="295" y="185" type="line"/>
      <point x="143" y="185" type="line"/>
      <point x="70" y="0" type="line"/>
      <point x="-34" y="0" type="line"/>
      <point x="261" y="700" type="line"/>
      <point x="362" y="700" type="line"/>
    </contour>
    <contour>
      <point x="291" y="278" type="line"/>
      <point x="286" y="396" type="line" smooth="yes"/>
      <point x="284" y="442"/>
      <point x="283" y="523"/>
      <point x="283" y="549" type="curve"/>
      <point x="273" y="523"/>
      <point x="244" y="442"/>
      <point x="226" y="396" type="curve" smooth="yes"/>
      <point x="179" y="278" type="line"/>
    </contour>
  </outline>
</glyph>
<glyph name="B" format="1">
  <advance width="495"/>
  <unicode hex="0042"/>
  <outline>
    <contour>
      <point x="194" y="0" type="curve" smooth="yes"/>
      <point x="8" y="0" type="line"/>
      <point x="131" y="700" type="line"/>
      <point x="300" y="700" type="line" smooth="yes"/>
      <point x="406" y="700"/>
      <point x="472" y="656"/>
      <point x="472" y="555" type="curve" smooth="yes"/>
      <point x="472" y="480"/>
      <point x="437" y="402"/>
      <point x="361" y="370" type="curve"/>
      <point x="406" y="352"/>
      <point x="429" y="305"/>
      <point x="429" y="247" type="curve" smooth="yes"/>
      <point x="429" y="83"/>
      <point x="324" y="0"/>
    </contour>
    <contour>
      <point x="369" y="533" type="curve" smooth="yes"/>
      <point x="369" y="587"/>
      <point x="343" y="605"/>
      <point x="294" y="605" type="curve" smooth="yes"/>
      <point x="212" y="605" type="line"/>
      <point x="178" y="415" type="line"/>
      <point x="258" y="415" type="line" smooth="yes"/>
      <point x="316" y="415"/>
      <point x="368" y="452"/>
    </contour>
    <contour>
      <point x="329" y="238" type="curve" smooth="yes"/>
      <point x="329" y="296"/>
      <point x="293" y="321"/>
      <point x="240" y="321" type="curve" smooth="yes"/>
      <point x="162" y="321" type="line"/>
      <point x="122" y="95" type="line"/>
      <point x="210" y="95" type="line" smooth="yes"/>
      <point x="276" y="95"/>
      <point x="330" y="143"/>
    </contour>
  </outline>
</glyph>
<glyph name="C" format="1">
  <advance width="450"/>
  <unicode hex="0043"/>
  <outline>
    <contour>
      <point x="410" y="166" type="line"/>
      <point x="375" y="62"/>
      <point x="316" y="-11"/>
      <point x="212" y="-11" type="curve" smooth="yes"/>
      <point x="89" y="-11"/>
      <point x="36" y="84"/>
      <point x="36" y="236" type="curve" smooth="yes"/>
      <point x="36" y="450"/>
      <point x="112" y="711"/>
      <point x="300" y="711" type="curve" smooth="yes"/>
      <point x="417" y="711"/>
      <point x="460" y="640"/>
      <point x="462" y="540" type="curve"/>
      <point x="360" y="515" type="line"/>
      <point x="358" y="577"/>
      <point x="339" y="612"/>
      <point x="288" y="612" type="curve" smooth="yes"/>
      <point x="175" y="612"/>
      <point x="136" y="371"/>
      <point x="136" y="233" type="curve" smooth="yes"/>
      <point x="136" y="153"/>
      <point x="158" y="88"/>
      <point x="221" y="88" type="curve" smooth="yes"/>
      <point x="268" y="88"/>
      <point x="300" y="125"/>
      <point x="323" y="195" type="curve"/>
    </contour>
  </outline>
</glyph>
<glyph name="D" format="1">
  <advance width="507"/>
  <unicode hex="0044"/>
  <outline>
    <contour>
      <point x="176" y="0" type="curve" smooth="yes"/>
      <point x="6" y="0" type="line"/>
      <point x="129" y="700" type="line"/>
      <point x="291" y="700" type="line" smooth="yes"/>
      <point x="417" y="700"/>
      <point x="470" y="608"/>
      <point x="470" y="462" type="curve" smooth="yes"/>
      <point x="470" y="212"/>
      <point x="356" y="0"/>
    </contour>
    <contour>
      <point x="368" y="457" type="curve" smooth="yes"/>
      <point x="368" y="549"/>
      <point x="341" y="604"/>
      <point x="268" y="604" type="curve" smooth="yes"/>
      <point x="211" y="604" type="line"/>
      <point x="121" y="96" type="line"/>
      <point x="184" y="96" type="line" smooth="yes"/>
      <point x="301" y="96"/>
      <point x="368" y="269"/>
    </contour>
  </outline>
</glyph>
<glyph name="E" format="1">
  <advance width="421"/>
  <unicode hex="0045"/>
  <outline>
    <contour>
      <point x="344" y="0" type="line"/>
      <point x="6" y="0" type="line"/>
      <point x="129" y="700" type="line"/>
      <point x="454" y="700" type="line"/>
      <point x="438" y="605" type="line"/>
      <point x="211" y="605" type="line"/>
      <point x="178" y="418" type="line"/>
      <point x="325" y="418" type="line"/>
      <point x="308" y="324" type="line"/>
      <point x="161" y="324" type="line"/>
      <point x="121" y="95" type="line"/>
      <point x="361" y="95" type="line"/>
    </contour>
  </outline>
</glyph>
<glyph name="F" format="1">
  <advance width="404"/>
  <unicode hex="0046"/>
  <outline>
    <contour>
      <point x="443" y="605" type="line"/>
      <point x="211" y="605" type="line"/>
      <point x="177" y="413" type="line"/>
      <point x="324" y="413" type="line"/>
      <point x="307" y="319" type="line"/>
      <point x="160" y="319" type="line"/>
      <point x="104" y="0" type="line"/>
      <point x="6" y="0" type="line"/>
      <point x="129" y="700" type="line"/>
      <point x="459" y="700" type="line"/>
    </contour>
  </outline>
</glyph>
<glyph name="G" format="1">
  <advance width="491"/>
  <unicode hex="0047"/>
  <outline>
    <contour>
      <point x="429" y="199" type="line" smooth="yes"/>
      <point x="424" y="166"/>
      <point x="413" y="129"/>
      <point x="402" y="105" type="curve" smooth="yes"/>
      <point x="368" y="33"/>
      <point x="308" y="-11"/>
      <point x="216" y="-11" type="curve" smooth="yes"/>
      <point x="97" y="-11"/>
      <point x="36" y="87"/>
      <point x="36" y="238" type="curve" smooth="yes"/>
      <point x="36" y="489"/>
      <point x="133" y="711"/>
      <point x="313" y="711" type="curve" smooth="yes"/>
      <point x="419" y="711"/>
      <point x="479" y="641"/>
      <point x="479" y="536" type="curve"/>
      <point x="377" y="512" type="line"/>
      <point x="372" y="584"/>
      <point x="351" y="612"/>
      <point x="301" y="612" type="curve" smooth="yes"/>
      <point x="198" y="612"/>
      <point x="136" y="428"/>
      <point x="136" y="234" type="curve" smooth="yes"/>
      <point x="136" y="148"/>
      <point x="162" y="87"/>
      <point x="222" y="87" type="curve" smooth="yes"/>
      <point x="287" y="87"/>
      <point x="317" y="131"/>
      <point x="331" y="211" type="curve" smooth="yes"/>
      <point x="340" y="263" type="line"/>
      <point x="262" y="263" type="line"/>
      <point x="277" y="359" type="line"/>
      <point x="455" y="359" type="line"/>
    </contour>
  </outline>
</glyph>
<glyph name="H" format="1">
  <advance width="527"/>
  <unicode hex="0048"/>
  <outline>
    <contour>
      <point x="396" y="0" type="line"/>
      <point x="298" y="0" type="line"/>
      <point x="355" y="324" type="line"/>
      <point x="163" y="324" type="line"/>
      <point x="106" y="0" type="line"/>
      <point x="8" y="0" type="line"/>
      <point x="131" y="700" type="line"/>
      <point x="229" y="700" type="line"/>
      <point x="180" y="420" type="line"/>
      <point x="372" y="420" type="line"/>
      <point x="421" y="700" type="line"/>
      <point x="519" y="700" type="line"/>
    </contour>
  </outline>
</glyph>
<glyph name="I" format="1">
  <advance width="247"/>
  <unicode hex="0049"/>
  <outline>
    <contour>
      <point x="111" y="0" type="line"/>
      <point x="13" y="0" type="line"/>
      <point x="136" y="700" type="line"/>
      <point x="234" y="700" type="line"/>
    </contour>
  </outline>
</glyph>
<glyph name="J" format="1">
  <advance width="428"/>
  <unicode hex="004A"/>
  <outline>
    <contour>
      <point x="328" y="178" type="line" smooth="yes"/>
      <point x="322" y="146"/>
      <point x="315" y="115"/>
      <point x="303" y="91" type="curve" smooth="yes"/>
      <point x="273" y="29"/>
      <point x="219" y="-11"/>
      <point x="137" y="-11" type="curve" smooth="yes"/>
      <point x="25" y="-11"/>
      <point x="-22" y="76"/>
      <point x="-18" y="170" type="curve"/>
      <point x="75" y="193" type="line"/>
      <point x="73" y="119"/>
      <point x="99" y="83"/>
      <point x="143" y="83" type="curve" smooth="yes"/>
      <point x="201" y="83"/>
      <point x="220" y="119"/>
      <point x="234" y="197" type="curve" smooth="yes"/>
      <point x="322" y="700" type="line"/>
      <point x="420" y="700" type="line"/>
    </contour>
  </outline>
</glyph>
<glyph name="K" format="1">
  <advance width="462"/>
  <unicode hex="004B"/>
  <outline>
    <contour>
      <point x="400" y="0" type="line"/>
      <point x="301" y="0" type="line"/>
      <point x="231" y="362" type="line"/>
      <point x="152" y="260" type="line"/>
      <point x="106" y="0" type="line"/>
      <point x="8" y="0" type="line"/>
      <point x="131" y="700" type="line"/>
      <point x="229" y="700" type="line"/>
      <point x="198" y="523" type="line" smooth="yes"/>
      <point x="193" y="497"/>
      <point x="179" y="422"/>
      <point x="174" y="400" type="curve"/>
      <point x="189" y="419"/>
      <point x="232" y="479"/>
      <point x="251" y="504" type="curve" smooth="yes"/>
      <point x="401" y="700" type="line"/>
      <point x="509" y="700" type="line"/>
      <point x="314" y="454" type="line"/>
    </contour>
  </outline>
</glyph>
<glyph name="L" format="1">
  <advance width="380"/>
  <unicode hex="004C"/>
  <outline>
    <contour>
      <point x="322" y="0" type="line"/>
      <point x="8" y="0" type="line"/>
      <point x="131" y="700" type="line"/>
      <point x="229" y="700" type="line"/>
      <point x="123" y="96" type="line"/>
      <point x="339" y="96" type="line"/>
    </contour>
  </outline>
</glyph>
<glyph name="M" format="1">
  <advance width="612"/>
  <unicode hex="004D"/>
  <outline>
    <contour>
      <point x="480" y="0" type="line"/>
      <point x="384" y="0" type="line"/>
      <point x="434" y="282" type="line" smooth="yes"/>
      <point x="442" y="326"/>
      <point x="460" y="428"/>
      <point x="466" y="455" type="curve"/>
      <point x="453" y="427"/>
      <point x="405" y="325"/>
      <point x="380" y="274" type="curve" smooth="yes"/>
      <point x="239" y="-19" type="line"/>
      <point x="200" y="274" type="line" smooth="yes"/>
      <point x="193" y="324"/>
      <point x="181" y="427"/>
      <point x="178" y="455" type="curve"/>
      <point x="174" y="428"/>
      <point x="158" y="326"/>
      <point x="150" y="282" type="curve" smooth="yes"/>
      <point x="100" y="0" type="line"/>
      <point x="8" y="0" type="line"/>
      <point x="131" y="700" type="line"/>
      <point x="234" y="700" type="line"/>
      <point x="273" y="409" type="line" smooth="yes"/>
      <point x="279" y="367"/>
      <point x="288" y="281"/>
      <point x="289" y="256" type="curve"/>
      <point x="301" y="282"/>
      <point x="341" y="371"/>
      <point x="361" y="412" type="curve" smooth="yes"/>
      <point x="501" y="700" type="line"/>
      <point x="603" y="700" type="line"/>
    </contour>
  </outline>
</glyph>
<glyph name="N" format="1">
  <advance width="528"/>
  <unicode hex="004E"/>
  <outline>
    <contour>
      <point x="396" y="0" type="line"/>
      <point x="316" y="0" type="line"/>
      <point x="217" y="375" type="line" smooth="yes"/>
      <point x="209" y="405"/>
      <point x="194" y="470"/>
      <point x="188" y="490" type="curve"/>
      <point x="185" y="464"/>
      <point x="172" y="385"/>
      <point x="166" y="350" type="curve" smooth="yes"/>
      <point x="104" y="0" type="line"/>
      <point x="8" y="0" type="line"/>
      <point x="131" y="700" type="line"/>
      <point x="229" y="700" type="line"/>
      <point x="318" y="367" type="line" smooth="yes"/>
      <point x="326" y="337"/>
      <point x="341" y="272"/>
      <point x="346" y="252" type="curve"/>
      <point x="350" y="278"/>
      <point x="363" y="358"/>
      <point x="369" y="392" type="curve" smooth="yes"/>
      <point x="423" y="700" type="line"/>
      <point x="519" y="700" type="line"/>
    </contour>
  </outline>
</glyph>
<glyph name="O" format="1">
  <advance width="509"/>
  <unicode hex="004F"/>
  <outline>
    <contour>
      <point x="205" y="-11" type="curve" smooth="yes"/>
      <point x="87" y="-11"/>
      <point x="36" y="88"/>
      <point x="36" y="231" type="curve" smooth="yes"/>
      <point x="35" y="455"/>
      <point x="118" y="711"/>
      <point x="299" y="711" type="curve" smooth="yes"/>
      <point x="419" y="711"/>
      <point x="472" y="607"/>
      <point x="472" y="459" type="curve" smooth="yes"/>
      <point x="472" y="243"/>
      <point x="388" y="-11"/>
    </contour>
    <contour>
      <point x="372" y="449" type="curve" smooth="yes"/>
      <point x="372" y="540"/>
      <point x="351" y="613"/>
      <point x="292" y="613" type="curve" smooth="yes"/>
      <point x="187" y="613"/>
      <point x="137" y="392"/>
      <point x="137" y="243" type="curve" smooth="yes"/>
      <point x="137" y="156"/>
      <point x="157" y="87"/>
      <point x="218" y="87" type="curve" smooth="yes"/>
      <point x="325" y="87"/>
      <point x="372" y="307"/>
    </contour>
  </outline>
</glyph>
<glyph name="P" format="1">
  <advance width="474"/>
  <unicode hex="0050"/>
  <outline>
    <contour>
      <point x="232" y="285" type="curve" smooth="yes"/>
      <point x="156" y="285" type="line"/>
      <point x="106" y="0" type="line"/>
      <point x="8" y="0" type="line"/>
      <point x="131" y="700" type="line"/>
      <point x="305" y="700" type="line" smooth="yes"/>
      <point x="401" y="700"/>
      <point x="476" y="651"/>
      <point x="476" y="538" type="curve" smooth="yes"/>
      <point x="476" y="367"/>
      <point x="361" y="285"/>
    </contour>
    <contour>
      <point x="374" y="516" type="curve" smooth="yes"/>
      <point x="374" y="577"/>
      <point x="339" y="604"/>
      <point x="289" y="604" type="curve" smooth="yes"/>
      <point x="213" y="604" type="line"/>
      <point x="173" y="380" type="line"/>
      <point x="247" y="380" type="line" smooth="yes"/>
      <point x="316" y="380"/>
      <point x="374" y="423"/>
    </contour>
  </outline>
</glyph>
<glyph name="Q" format="1">
  <advance width="509"/>
  <unicode hex="0051"/>
  <outline>
    <contour>
      <point x="349" y="56" type="curve"/>
      <point x="376" y="4" type="line"/>
      <point x="302" y="-36" type="line"/>
      <point x="281" y="5" type="line"/>
      <point x="258" y="-5"/>
      <point x="233" y="-11"/>
      <point x="205" y="-11" type="curve" smooth="yes"/>
      <point x="87" y="-11"/>
      <point x="36" y="88"/>
      <point x="36" y="231" type="curve" smooth="yes"/>
      <point x="35" y="447"/>
      <point x="116" y="711"/>
      <point x="299" y="711" type="curve" smooth="yes"/>
      <point x="419" y="711"/>
      <point x="472" y="607"/>
      <point x="472" y="459" type="curve" smooth="yes"/>
      <point x="472" y="311"/>
      <point x="433" y="146"/>
    </contour>
    <contour>
      <point x="238" y="90" type="curve"/>
      <point x="201" y="161" type="line"/>
      <point x="275" y="201" type="line"/>
      <point x="303" y="146" type="line"/>
      <point x="351" y="221"/>
      <point x="372" y="353"/>
      <point x="372" y="449" type="curve" smooth="yes"/>
      <point x="372" y="540"/>
      <point x="352" y="613"/>
      <point x="289" y="613" type="curve" smooth="yes"/>
      <point x="185" y="613"/>
      <point x="137" y="397"/>
      <point x="137" y="243" type="curve" smooth="yes"/>
      <point x="137" y="156"/>
      <point x="157" y="87"/>
      <point x="218" y="87" type="curve" smooth="yes"/>
      <point x="225" y="87"/>
      <point x="231" y="88"/>
    </contour>
  </outline>
</glyph>
<glyph name="R" format="1">
  <advance width="496"/>
  <unicode hex="0052"/>
  <outline>
    <contour>
      <point x="398" y="0" type="line"/>
      <point x="299" y="0" type="line"/>
      <point x="247" y="305" type="line"/>
      <point x="160" y="305" type="line"/>
      <point x="106" y="0" type="line"/>
      <point x="8" y="0" type="line"/>
      <point x="131" y="700" type="line"/>
      <point x="314" y="700" type="line" smooth="yes"/>
      <point x="413" y="700"/>
      <point x="486" y="652"/>
      <point x="487" y="545" type="curve" smooth="yes"/>
      <point x="488" y="421"/>
      <point x="423" y="352"/>
      <point x="343" y="322" type="curve"/>
    </contour>
    <contour>
      <point x="386" y="528" type="curve" smooth="yes"/>
      <point x="386" y="583"/>
      <point x="352" y="605"/>
      <point x="295" y="605" type="curve" smooth="yes"/>
      <point x="213" y="605" type="line"/>
      <point x="176" y="399" type="line"/>
      <point x="263" y="399" type="line" smooth="yes"/>
      <point x="334" y="399"/>
      <point x="386" y="442"/>
    </contour>
  </outline>
</glyph>
<glyph name="S" format="1">
  <advance width="403"/>
  <unicode hex="0053"/>
  <outline>
    <contour>
      <point x="149" y="-9" type="curve" smooth="yes"/>
      <point x="63" y="-9"/>
      <point x="3" y="41"/>
      <point x="-30" y="103" type="curve"/>
      <point x="56" y="163" type="line"/>
      <point x="81" y="109"/>
      <point x="119" y="86"/>
      <point x="162" y="86" type="curve" smooth="yes"/>
      <point x="221" y="86"/>
      <point x="260" y="129"/>
      <point x="260" y="192" type="curve" smooth="yes"/>
      <point x="260" y="234"/>
      <point x="238" y="273"/>
      <point x="169" y="325" type="curve" smooth="yes"/>
      <point x="108" y="372"/>
      <point x="60" y="427"/>
      <point x="60" y="505" type="curve" smooth="yes"/>
      <point x="60" y="625"/>
      <point x="142" y="711"/>
      <point x="261" y="711" type="curve" smooth="yes"/>
      <point x="336" y="711"/>
      <point x="393" y="678"/>
      <point x="425" y="616" type="curve"/>
      <point x="342" y="554" type="line"/>
      <point x="317" y="597"/>
      <point x="289" y="614"/>
      <point x="251" y="614" type="curve" smooth="yes"/>
      <point x="199" y="614"/>
      <point x="161" y="580"/>
      <point x="161" y="524" type="curve" smooth="yes"/>
      <point x="161" y="485"/>
      <point x="181" y="456"/>
      <point x="241" y="408" type="curve" smooth="yes"/>
      <point x="308" y="355"/>
      <point x="362" y="296"/>
      <point x="362" y="208" type="curve" smooth="yes"/>
      <point x="362" y="80"/>
      <point x="283" y="-9"/>
    </contour>
  </outline>
</glyph>
<glyph name="T" format="1">
  <advance width="382"/>
  <unicode hex="0054"/>
  <outline>
    <contour>
      <point x="413" y="604" type="line"/>
      <point x="284" y="604" type="line"/>
      <point x="177" y="0" type="line"/>
      <point x="79" y="0" type="line"/>
      <point x="186" y="604" type="line"/>
      <point x="57" y="604" type="line"/>
      <point x="73" y="700" type="line"/>
      <point x="429" y="700" type="line"/>
    </contour>
  </outline>
</glyph>
<glyph name="U" format="1">
  <advance width="524"/>
  <unicode hex="0055"/>
  <outline>
    <contour>
      <point x="431" y="208" type="line" smooth="yes"/>
      <point x="425" y="172"/>
      <point x="416" y="137"/>
      <point x="401" y="109" type="curve" smooth="yes"/>
      <point x="361" y="32"/>
      <point x="294" y="-11"/>
      <point x="206" y="-11" type="curve" smooth="yes"/>
      <point x="90" y="-11"/>
      <point x="20" y="75"/>
      <point x="42" y="202" type="curve" smooth="yes"/>
      <point x="129" y="700" type="line"/>
      <point x="227" y="700" type="line"/>
      <point x="139" y="204" type="line" smooth="yes"/>
      <point x="129" y="146"/>
      <point x="142" y="85"/>
      <point x="215" y="85" type="curve" smooth="yes"/>
      <point x="264" y="85"/>
      <point x="294" y="109"/>
      <point x="311" y="141" type="curve" smooth="yes"/>
      <point x="322" y="160"/>
      <point x="328" y="182"/>
      <point x="332" y="202" type="curve" smooth="yes"/>
      <point x="420" y="700" type="line"/>
      <point x="517" y="700" type="line"/>
    </contour>
  </outline>
</glyph>
<glyph name="V" format="1">
  <advance width="464"/>
  <unicode hex="0056"/>
  <outline>
    <contour>
      <point x="509" y="700" type="line"/>
      <point x="205" y="0" type="line"/>
      <point x="132" y="0" type="line"/>
      <point x="75" y="700" type="line"/>
      <point x="182" y="700" type="line"/>
      <point x="202" y="349" type="line" smooth="yes"/>
      <point x="204" y="313"/>
      <point x="206" y="226"/>
      <point x="206" y="201" type="curve"/>
      <point x="216" y="226"/>
      <point x="249" y="312"/>
      <point x="264" y="349" type="curve" smooth="yes"/>
      <point x="405" y="700" type="line"/>
    </contour>
  </outline>
</glyph>
<glyph name="W" format="1">
  <advance width="618"/>
  <unicode hex="0057"/>
  <outline>
    <contour>
      <point x="650" y="700" type="line"/>
      <point x="401" y="0" type="line"/>
      <point x="326" y="0" type="line"/>
      <point x="321" y="245" type="line" smooth="yes"/>
      <point x="320" y="289"/>
      <point x="320" y="415"/>
      <point x="322" y="440" type="curve"/>
      <point x="314" y="415"/>
      <point x="271" y="290"/>
      <point x="255" y="248" type="curve" smooth="yes"/>
      <point x="163" y="0" type="line"/>
      <point x="90" y="0" type="line"/>
      <point x="88" y="700" type="line"/>
      <point x="186" y="700" type="line"/>
      <point x="184" y="448" type="line" smooth="yes"/>
      <point x="184" y="405"/>
      <point x="181" y="260"/>
      <point x="179" y="235" type="curve"/>
      <point x="187" y="260"/>
      <point x="235" y="406"/>
      <point x="249" y="447" type="curve" smooth="yes"/>
      <point x="333" y="700" type="line"/>
      <point x="408" y="700" type="line"/>
      <point x="405" y="447" type="line" smooth="yes"/>
      <point x="405" y="405"/>
      <point x="402" y="260"/>
      <point x="400" y="235" type="curve"/>
      <point x="409" y="260"/>
      <point x="455" y="404"/>
      <point x="470" y="448" type="curve" smooth="yes"/>
      <point x="555" y="700" type="line"/>
    </contour>
  </outline>
</glyph>
<glyph name="X" format="1">
  <advance width="445"/>
  <unicode hex="0058"/>
  <outline>
    <contour>
      <point x="369" y="0" type="line"/>
      <point x="261" y="0" type="line"/>
      <point x="232" y="136" type="line" smooth="yes"/>
      <point x="225" y="170"/>
      <point x="211" y="238"/>
      <point x="209" y="260" type="curve"/>
      <point x="198" y="237"/>
      <point x="161" y="169"/>
      <point x="142" y="136" type="curve" smooth="yes"/>
      <point x="65" y="0" type="line"/>
      <point x="-40" y="0" type="line"/>
      <point x="176" y="360" type="line"/>
      <point x="93" y="700" type="line"/>
      <point x="201" y="700" type="line"/>
      <point x="225" y="589" type="line" smooth="yes"/>
      <point x="232" y="556"/>
      <point x="246" y="485"/>
      <point x="248" y="463" type="curve"/>
      <point x="259" y="486"/>
      <point x="297" y="557"/>
      <point x="315" y="589" type="curve" smooth="yes"/>
      <point x="377" y="700" type="line"/>
      <point x="482" y="700" type="line"/>
      <point x="280" y="363" type="line"/>
    </contour>
  </outline>
</glyph>
<glyph name="Y" format="1">
  <advance width="453"/>
  <unicode hex="0059"/>
  <outline>
    <contour>
      <point x="510" y="700" type="line"/>
      <point x="269" y="313" type="line"/>
      <point x="214" y="0" type="line"/>
      <point x="116" y="0" type="line"/>
      <point x="171" y="310" type="line"/>
      <point x="61" y="700" type="line"/>
      <point x="172" y="700" type="line"/>
      <point x="209" y="554" type="line" smooth="yes"/>
      <point x="218" y="519"/>
      <point x="235" y="432"/>
      <point x="238" y="408" type="curve"/>
      <point x="249" y="433"/>
      <point x="297" y="519"/>
      <point x="318" y="555" type="curve" smooth="yes"/>
      <point x="403" y="700" type="line"/>
    </contour>
  </outline>
</glyph>
<glyph name="Z" format="1">
  <advance width="440"/>
  <unicode hex="005A"/>
  <outline>
    <contour>
      <point x="350" y="0" type="line"/>
      <point x="-22" y="0" type="line"/>
      <point x="-6" y="91" type="line"/>
      <point x="260" y="485" type="line" smooth="yes"/>
      <point x="291" y="531"/>
      <point x="335" y="592"/>
      <point x="350" y="611" type="curve"/>
      <point x="329" y="610"/>
      <point x="286" y="609"/>
      <point x="252" y="609" type="curve" smooth="yes"/>
      <point x="111" y="609" type="line"/>
      <point x="127" y="700" type="line"/>
      <point x="467" y="700" type="line"/>
      <point x="451" y="609" type="line"/>
      <point x="185" y="214" type="line" smooth="yes"/>
      <point x="154" y="169"/>
      <point x="109" y="108"/>
      <point x="95" y="89" type="curve"/>
      <point x="116" y="90"/>
      <point x="158" y="91"/>
      <point x="192" y="91" type="curve" smooth="yes"/>
      <point x="366" y="91" type="line"/>
    </contour>
  </outline>
</glyph>
<glyph name="bracketleft" format="1">
  <advance width="325"/>
  <unicode hex="005B"/>
  <outline>
    <contour>
      <point x="208" y="-100" type="line"/>
      <point x="9" y="-100" type="line"/>
      <point x="150" y="700" type="line"/>
      <point x="349" y="700" type="line"/>
      <point x="335" y="618" type="line"/>
      <point x="229" y="618" type="line"/>
      <point x="117" y="-18" type="line"/>
      <point x="223" y="-18" type="line"/>
    </contour>
  </outline>
</glyph>
<glyph name="backslash" format="1">
  <advance width="349"/>
  <unicode hex="005C"/>
  <outline>
    <contour>
      <point x="278" y="-90" type="line"/>
      <point x="181" y="-90" type="line"/>
      <point x="71" y="790" type="line"/>
      <point x="168" y="790" type="line"/>
    </contour>
  </outline>
</glyph>
<glyph name="bracketright" format="1">
  <advance width="325"/>
  <unicode hex="005D"/>
  <outline>
    <contour>
      <point x="154" y="-100" type="line"/>
      <point x="-45" y="-100" type="line"/>
      <point x="-31" y="-21" type="line"/>
      <point x="75" y="-21" type="line"/>
      <point x="189" y="621" type="line"/>
      <point x="83" y="621" type="line"/>
      <point x="96" y="700" type="line"/>
      <point x="295" y="700" type="line"/>
    </contour>
  </outline>
</glyph>
<glyph name="asciicircum" format="1">
  <advance width="444"/>
  <unicode hex="005E"/>
  <outline>
    <contour>
      <point x="422" y="382" type="line"/>
      <point x="315" y="382" type="line"/>
      <point x="265" y="584" type="line"/>
      <point x="143" y="382" type="line"/>
      <point x="38" y="382" type="line"/>
      <point x="246" y="700" type="line"/>
      <point x="326" y="700" type="line"/>
    </contour>
  </outline>
</glyph>
<glyph name="underscore" format="1">
  <advance width="350"/>
  <unicode hex="005F"/>
  <outline>
    <contour>
      <point x="272" y="-170" type="line"/>
      <point x="-78" y="-170" type="line"/>
      <point x="-62" y="-82" type="line"/>
      <point x="288" y="-82" type="line"/>
    </contour>
  </outline>
</glyph>
<glyph name="a" format="1">
  <advance width="434"/>
  <unicode hex="0061"/>
  <outline>
    <contour>
      <point x="307" y="0" type="line"/>
      <point x="211" y="0" type="line"/>
      <point x="217" y="36" type="line"/>
      <point x="190" y="7"/>
      <point x="156" y="-11"/>
      <point x="109" y="-11" type="curve" smooth="yes"/>
      <point x="41" y="-11"/>
      <point x="-14" y="34"/>
      <point x="-14" y="127" type="curve" smooth="yes"/>
      <point x="-14" y="265"/>
      <point x="80" y="335"/>
      <point x="185" y="335" type="curve" smooth="yes"/>
      <point x="217" y="335"/>
      <point x="248" y="328"/>
      <point x="267" y="318" type="curve"/>
      <point x="276" y="371" type="line" smooth="yes"/>
      <point x="277" y="378"/>
      <point x="279" y="389"/>
      <point x="279" y="396" type="curve" smooth="yes"/>
      <point x="279" y="430"/>
      <point x="261" y="446"/>
      <point x="222" y="446" type="curve" smooth="yes"/>
      <point x="189" y="446"/>
      <point x="157" y="437"/>
      <point x="113" y="413" type="curve"/>
      <point x="85" y="486" type="line"/>
      <point x="138" y="518"/>
      <point x="193" y="536"/>
      <point x="241" y="536" type="curve" smooth="yes"/>
      <point x="332" y="536"/>
      <point x="379" y="507"/>
      <point x="379" y="428" type="curve" smooth="yes"/>
      <point x="379" y="413"/>
      <point x="377" y="397"/>
      <point x="374" y="379" type="curve" smooth="yes"/>
    </contour>
    <contour>
      <point x="233" y="125" type="curve"/>
      <point x="252" y="230" type="line"/>
      <point x="231" y="244"/>
      <point x="209" y="250"/>
      <point x="176" y="250" type="curve" smooth="yes"/>
      <point x="124" y="250"/>
      <point x="83" y="212"/>
      <point x="83" y="143" type="curve" smooth="yes"/>
      <point x="83" y="97"/>
      <point x="107" y="76"/>
      <point x="142" y="76" type="curve" smooth="yes"/>
      <point x="179" y="76"/>
      <point x="212" y="96"/>
    </contour>
  </outline>
</glyph>
<glyph name="b" format="1">
  <advance width="446"/>
  <unicode hex="0062"/>
  <outline>
    <contour>
      <point x="172" y="-11" type="curve" smooth="yes"/>
      <point x="135" y="-11"/>
      <point x="107" y="2"/>
      <point x="88" y="28" type="curve"/>
      <point x="83" y="0" type="line"/>
      <point x="-13" y="0" type="line"/>
      <point x="107" y="679" type="line"/>
      <point x="212" y="729" type="line"/>
      <point x="169" y="490" type="line"/>
      <point x="199" y="517"/>
      <point x="229" y="536"/>
      <point x="276" y="536" type="curve" smooth="yes"/>
      <point x="349" y="536"/>
      <point x="393" y="494"/>
      <point x="393" y="381" type="curve" smooth="yes"/>
      <point x="394" y="150"/>
      <point x="302" y="-11"/>
    </contour>
    <contour>
      <point x="295" y="357" type="curve" smooth="yes"/>
      <point x="295" y="419"/>
      <point x="276" y="446"/>
      <point x="238" y="446" type="curve" smooth="yes"/>
      <point x="206" y="446"/>
      <point x="175" y="426"/>
      <point x="153" y="398" type="curve"/>
      <point x="105" y="126" type="line"/>
      <point x="121" y="94"/>
      <point x="152" y="79"/>
      <point x="182" y="79" type="curve" smooth="yes"/>
      <point x="249" y="79"/>
      <point x="295" y="215"/>
    </contour>
  </outline>
</glyph>
<glyph name="c" format="1">
  <advance width="380"/>
  <unicode hex="0063"/>
  <outline>
    <contour>
      <point x="326" y="82" type="line"/>
      <point x="286" y="25"/>
      <point x="239" y="-11"/>
      <point x="163" y="-11" type="curve" smooth="yes"/>
      <point x="69" y="-11"/>
      <point x="11" y="54"/>
      <point x="11" y="190" type="curve" smooth="yes"/>
      <point x="12" y="408"/>
      <point x="109" y="536"/>
      <point x="233" y="536" type="curve" smooth="yes"/>
      <point x="309" y="536"/>
      <point x="354" y="495"/>
      <point x="377" y="444" type="curve"/>
      <point x="300" y="384" type="line"/>
      <point x="278" y="427"/>
      <point x="260" y="444"/>
      <point x="226" y="444" type="curve" smooth="yes"/>
      <point x="155" y="444"/>
      <point x="108" y="333"/>
      <point x="108" y="193" type="curve" smooth="yes"/>
      <point x="108" y="123"/>
      <point x="128" y="81"/>
      <point x="177" y="81" type="curve" smooth="yes"/>
      <point x="209" y="81"/>
      <point x="241" y="102"/>
      <point x="266" y="139" type="curve"/>
    </contour>
  </outline>
</glyph>
<glyph name="d" format="1">
  <advance width="453"/>
  <unicode hex="0064"/>
  <outline>
    <contour>
      <point x="329" y="0" type="line"/>
      <point x="233" y="0" type="line"/>
      <point x="239" y="35" type="line"/>
      <point x="212" y="8"/>
      <point x="178" y="-11"/>
      <point x="140" y="-11" type="curve" smooth="yes"/>
      <point x="64" y="-11"/>
      <point x="12" y="38"/>
      <point x="12" y="160" type="curve" smooth="yes"/>
      <point x="12" y="392"/>
      <point x="109" y="536"/>
      <point x="237" y="536" type="curve" smooth="yes"/>
      <point x="274" y="536"/>
      <point x="299" y="524"/>
      <point x="321" y="497" type="curve"/>
      <point x="353" y="679" type="line"/>
      <point x="458" y="729" type="line"/>
    </contour>
    <contour>
      <point x="255" y="127" type="curve"/>
      <point x="303" y="399" type="line"/>
      <point x="288" y="431"/>
      <point x="260" y="446"/>
      <point x="230" y="446" type="curve" smooth="yes"/>
      <point x="162" y="446"/>
      <point x="110" y="330"/>
      <point x="111" y="170" type="curve" smooth="yes"/>
      <point x="111" y="106"/>
      <point x="134" y="79"/>
      <point x="173" y="79" type="curve" smooth="yes"/>
      <point x="205" y="79"/>
      <point x="233" y="99"/>
    </contour>
  </outline>
</glyph>
<glyph name="e" format="1">
  <advance width="430"/>
  <unicode hex="0065"/>
  <outline>
    <contour>
      <point x="389" y="264" type="curve" smooth="yes"/>
      <point x="388" y="255"/>
      <point x="385" y="240"/>
      <point x="383" y="230" type="curve"/>
      <point x="108" y="230" type="line"/>
      <point x="99" y="126"/>
      <point x="129" y="81"/>
      <point x="185" y="81" type="curve" smooth="yes"/>
      <point x="226" y="81"/>
      <point x="255" y="94"/>
      <point x="286" y="120" type="curve"/>
      <point x="336" y="59" type="line"/>
      <point x="295" y="19"/>
      <point x="238" y="-11"/>
      <point x="171" y="-11" type="curve" smooth="yes"/>
      <point x="64" y="-11"/>
      <point x="11" y="64"/>
      <point x="11" y="187" type="curve" smooth="yes"/>
      <point x="11" y="420"/>
      <point x="119" y="536"/>
      <point x="239" y="536" type="curve" smooth="yes"/>
      <point x="330" y="536"/>
      <point x="396" y="469"/>
      <point x="394" y="332" type="curve" smooth="yes"/>
      <point x="394" y="311"/>
      <point x="392" y="288"/>
    </contour>
    <contour>
      <point x="297" y="313" type="line"/>
      <point x="306" y="391"/>
      <point x="282" y="446"/>
      <point x="228" y="446" type="curve" smooth="yes"/>
      <point x="179" y="446"/>
      <point x="141" y="403"/>
      <point x="120" y="313" type="curve"/>
    </contour>
  </outline>
</glyph>
<glyph name="g" format="1">
  <advance width="453"/>
  <unicode hex="0067"/>
  <outline>
    <contour>
      <point x="337" y="46" type="line" smooth="yes"/>
      <point x="310" y="-104"/>
      <point x="243" y="-176"/>
      <point x="81" y="-193" type="curve"/>
      <point x="68" y="-116" type="line"/>
      <point x="186" y="-101"/>
      <point x="225" y="-49"/>
      <point x="239" y="36" type="curve"/>
      <point x="212" y="7"/>
      <point x="184" y="-11"/>
      <point x="142" y="-11" type="curve" smooth="yes"/>
      <point x="65" y="-11"/>
      <point x="12" y="35"/>
      <point x="12" y="165" type="curve" smooth="yes"/>
      <point x="12" y="382"/>
      <point x="110" y="536"/>
      <point x="237" y="536" type="curve" smooth="yes"/>
      <point x="274" y="536"/>
      <point x="299" y="524"/>
      <point x="321" y="497" type="curve"/>
      <point x="326" y="525" type="line"/>
      <point x="422" y="525" type="line"/>
    </contour>
    <contour>
      <point x="255" y="127" type="curve"/>
      <point x="303" y="399" type="line"/>
      <point x="288" y="431"/>
      <point x="260" y="446"/>
      <point x="230" y="446" type="curve" smooth="yes"/>
      <point x="165" y="446"/>
      <point x="111" y="344"/>
      <point x="111" y="177" type="curve" smooth="yes"/>
      <point x="111" y="111"/>
      <point x="134" y="79"/>
      <point x="173" y="79" type="curve" smooth="yes"/>
      <point x="205" y="79"/>
      <point x="233" y="99"/>
    </contour>
  </outline>
</glyph>
<glyph name="h" format="1">
  <advance width="442"/>
  <unicode hex="0068"/>
  <outline>
    <contour>
      <point x="318" y="0" type="line"/>
      <point x="222" y="0" type="line"/>
      <point x="279" y="323" type="line" smooth="yes"/>
      <point x="283" y="345"/>
      <point x="285" y="364"/>
      <point x="285" y="380" type="curve" smooth="yes"/>
      <point x="286" y="426"/>
      <point x="271" y="445"/>
      <point x="237" y="445" type="curve" smooth="yes"/>
      <point x="207" y="445"/>
      <point x="177" y="428"/>
      <point x="153" y="397" type="curve"/>
      <point x="83" y="0" type="line"/>
      <point x="-13" y="0" type="line"/>
      <point x="107" y="679" type="line"/>
      <point x="212" y="729" type="line"/>
      <point x="169" y="489" type="line"/>
      <point x="195" y="516"/>
      <point x="233" y="536"/>
      <point x="278" y="536" type="curve" smooth="yes"/>
      <point x="349" y="536"/>
      <point x="386" y="497"/>
      <point x="386" y="421" type="curve" smooth="yes"/>
      <point x="386" y="397"/>
      <point x="383" y="366"/>
      <point x="378" y="339" type="curve" smooth="yes"/>
    </contour>
  </outline>
</glyph>
<glyph name="i" format="1">
  <advance width="220"/>
  <unicode hex="0069"/>
  <outline>
    <contour>
      <point x="221" y="666" type="curve" smooth="yes"/>
      <point x="221" y="634"/>
      <point x="194" y="607"/>
      <point x="162" y="607" type="curve" smooth="yes"/>
      <point x="129" y="607"/>
      <point x="102" y="634"/>
      <point x="102" y="666" type="curve" smooth="yes"/>
      <point x="102" y="699"/>
      <point x="129" y="726"/>
      <point x="162" y="726" type="curve" smooth="yes"/>
      <point x="194" y="726"/>
      <point x="221" y="699"/>
    </contour>
    <contour>
      <point x="93" y="0" type="line"/>
      <point x="-3" y="0" type="line"/>
      <point x="90" y="525" type="line"/>
      <point x="186" y="525" type="line"/>
    </contour>
  </outline>
</glyph>
<glyph name="j" format="1">
  <advance width="220"/>
  <unicode hex="006A"/>
  <outline>
    <contour>
      <point x="221" y="666" type="curve" smooth="yes"/>
      <point x="221" y="634"/>
      <point x="194" y="607"/>
      <point x="162" y="607" type="curve" smooth="yes"/>
      <point x="129" y="607"/>
      <point x="102" y="634"/>
      <point x="102" y="666" type="curve" smooth="yes"/>
      <point x="102" y="699"/>
      <point x="129" y="726"/>
      <point x="162" y="726" type="curve" smooth="yes"/>
      <point x="194" y="726"/>
      <point x="221" y="699"/>
    </contour>
    <contour>
      <point x="96" y="19" type="line" smooth="yes"/>
      <point x="72" y="-115"/>
      <point x="8" y="-175"/>
      <point x="-115" y="-193" type="curve"/>
      <point x="-126" y="-115" type="line"/>
      <point x="-46" y="-97"/>
      <point x="-15" y="-66"/>
      <point x="-1" y="13" type="curve" smooth="yes"/>
      <point x="90" y="525" type="line"/>
      <point x="186" y="525" type="line"/>
    </contour>
  </outline>
</glyph>
<glyph name="k" format="1">
  <advance width="394"/>
  <unicode hex="006B"/>
  <outline>
    <contour>
      <point x="324" y="0" type="line"/>
      <point x="222" y="0" type="line"/>
      <point x="177" y="250" type="line"/>
      <point x="113" y="168" type="line"/>
      <point x="83" y="0" type="line"/>
      <point x="-13" y="0" type="line"/>
      <point x="107" y="679" type="line"/>
      <point x="212" y="729" type="line"/>
      <point x="156" y="414" type="line" smooth="yes"/>
      <point x="150" y="381"/>
      <point x="140" y="327"/>
      <point x="134" y="301" type="curve"/>
      <point x="148" y="322"/>
      <point x="174" y="359"/>
      <point x="191" y="382" type="curve" smooth="yes"/>
      <point x="296" y="525" type="line"/>
      <point x="405" y="525" type="line"/>
      <point x="257" y="341" type="line"/>
    </contour>
  </outline>
</glyph>
<glyph name="l" format="1">
  <advance width="220"/>
  <unicode hex="006C"/>
  <outline>
    <contour>
      <point x="93" y="0" type="line"/>
      <point x="-3" y="0" type="line"/>
      <point x="117" y="679" type="line"/>
      <point x="222" y="729" type="line"/>
    </contour>
  </outline>
</glyph>
<glyph name="m" format="1">
  <advance width="665"/>
  <unicode hex="006D"/>
  <outline>
    <contour>
      <point x="541" y="0" type="line"/>
      <point x="445" y="0" type="line"/>
      <point x="502" y="323" type="line" smooth="yes"/>
      <point x="507" y="353"/>
      <point x="510" y="377"/>
      <point x="510" y="395" type="curve" smooth="yes"/>
      <point x="510" y="430"/>
      <point x="497" y="445"/>
      <point x="466" y="445" type="curve" smooth="yes"/>
      <point x="436" y="445"/>
      <point x="404" y="427"/>
      <point x="382" y="397" type="curve"/>
      <point x="312" y="0" type="line"/>
      <point x="216" y="0" type="line"/>
      <point x="273" y="323" type="line" smooth="yes"/>
      <point x="278" y="353"/>
      <point x="281" y="378"/>
      <point x="281" y="396" type="curve" smooth="yes"/>
      <point x="280" y="430"/>
      <point x="268" y="445"/>
      <point x="237" y="445" type="curve" smooth="yes"/>
      <point x="207" y="445"/>
      <point x="175" y="427"/>
      <point x="153" y="397" type="curve"/>
      <point x="83" y="0" type="line"/>
      <point x="-13" y="0" type="line"/>
      <point x="80" y="525" type="line"/>
      <point x="176" y="525" type="line"/>
      <point x="169" y="489" type="line"/>
      <point x="195" y="516"/>
      <point x="231" y="536"/>
      <point x="276" y="536" type="curve" smooth="yes"/>
      <point x="327" y="536"/>
      <point x="356" y="518"/>
      <point x="372" y="480" type="curve"/>
      <point x="416" y="522"/>
      <point x="454" y="536"/>
      <point x="501" y="536" type="curve" smooth="yes"/>
      <point x="573" y="536"/>
      <point x="609" y="497"/>
      <point x="609" y="421" type="curve" smooth="yes"/>
      <point x="609" y="395"/>
      <point x="604" y="359"/>
      <point x="599" y="329" type="curve" smooth="yes"/>
    </contour>
  </outline>
</glyph>
<glyph name="n" format="1">
  <advance width="442"/>
  <unicode hex="006E"/>
  <outline>
    <contour>
      <point x="318" y="0" type="line"/>
      <point x="222" y="0" type="line"/>
      <point x="279" y="323" type="line" smooth="yes"/>
      <point x="283" y="346"/>
      <point x="285" y="365"/>
      <point x="285" y="381" type="curve" smooth="yes"/>
      <point x="286" y="426"/>
      <point x="271" y="445"/>
      <point x="236" y="445" type="curve" smooth="yes"/>
      <point x="206" y="445"/>
      <point x="177" y="428"/>
      <point x="153" y="397" type="curve"/>
      <point x="83" y="0" type="line"/>
      <point x="-13" y="0" type="line"/>
      <point x="80" y="525" type="line"/>
      <point x="176" y="525" type="line"/>
      <point x="169" y="489" type="line"/>
      <point x="195" y="516"/>
      <point x="231" y="536"/>
      <point x="276" y="536" type="curve" smooth="yes"/>
      <point x="349" y="536"/>
      <point x="386" y="499"/>
      <point x="386" y="423" type="curve" smooth="yes"/>
      <point x="386" y="398"/>
      <point x="382" y="364"/>
      <point x="378" y="339" type="curve" smooth="yes"/>
    </contour>
  </outline>
</glyph>
<glyph name="o" format="1">
  <advance width="451"/>
  <unicode hex="006F"/>
  <outline>
    <contour>
      <point x="166" y="-11" type="curve" smooth="yes"/>
      <point x="72" y="-11"/>
      <point x="10" y="54"/>
      <point x="10" y="190" type="curve" smooth="yes"/>
      <point x="10" y="402"/>
      <point x="109" y="536"/>
      <point x="241" y="536" type="curve" smooth="yes"/>
      <point x="333" y="536"/>
      <point x="397" y="472"/>
      <point x="397" y="342" type="curve" smooth="yes"/>
      <point x="397" y="127"/>
      <point x="302" y="-11"/>
    </contour>
    <contour>
      <point x="299" y="331" type="curve" smooth="yes"/>
      <point x="299" y="405"/>
      <point x="274" y="444"/>
      <point x="227" y="444" type="curve" smooth="yes"/>
      <point x="157" y="444"/>
      <point x="107" y="333"/>
      <point x="107" y="194" type="curve" smooth="yes"/>
      <point x="107" y="119"/>
      <point x="132" y="81"/>
      <point x="178" y="81" type="curve" smooth="yes"/>
      <point x="254" y="81"/>
      <point x="299" y="204"/>
    </contour>
  </outline>
</glyph>
<glyph name="p" format="1">
  <advance width="446"/>
  <unicode hex="0070"/>
  <outline>
    <contour>
      <point x="175" y="-11" type="curve" smooth="yes"/>
      <point x="138" y="-11"/>
      <point x="105" y="2"/>
      <point x="88" y="28" type="curve"/>
      <point x="58" y="-143" type="line"/>
      <point x="-47" y="-193" type="line"/>
      <point x="80" y="525" type="line"/>
      <point x="176" y="525" type="line"/>
      <point x="169" y="490" type="line"/>
      <point x="196" y="516"/>
      <point x="227" y="536"/>
      <point x="274" y="536" type="curve" smooth="yes"/>
      <point x="346" y="536"/>
      <point x="395" y="486"/>
      <point x="394" y="379" type="curve" smooth="yes"/>
      <point x="391" y="155"/>
      <point x="305" y="-11"/>
    </contour>
    <contour>
      <point x="296" y="357" type="curve" smooth="yes"/>
      <point x="297" y="416"/>
      <point x="275" y="446"/>
      <point x="238" y="446" type="curve" smooth="yes"/>
      <point x="206" y="446"/>
      <point x="175" y="426"/>
      <point x="153" y="398" type="curve"/>
      <point x="105" y="126" type="line"/>
      <point x="119" y="95"/>
      <point x="146" y="79"/>
      <point x="174" y="79" type="curve" smooth="yes"/>
      <point x="253" y="79"/>
      <point x="293" y="221"/>
    </contour>
  </outline>
</glyph>
<glyph name="q" format="1">
  <advance width="453"/>
  <unicode hex="0071"/>
  <outline>
    <contour>
      <point x="304" y="-143" type="line"/>
      <point x="199" y="-193" type="line"/>
      <point x="239" y="35" type="line"/>
      <point x="209" y="8"/>
      <point x="182" y="-11"/>
      <point x="135" y="-11" type="curve" smooth="yes"/>
      <point x="63" y="-11"/>
      <point x="11" y="33"/>
      <point x="12" y="157" type="curve" smooth="yes"/>
      <point x="14" y="382"/>
      <point x="107" y="536"/>
      <point x="237" y="536" type="curve" smooth="yes"/>
      <point x="274" y="536"/>
      <point x="299" y="524"/>
      <point x="321" y="497" type="curve"/>
      <point x="326" y="525" type="line"/>
      <point x="422" y="525" type="line"/>
    </contour>
    <contour>
      <point x="255" y="127" type="curve"/>
      <point x="303" y="399" type="line"/>
      <point x="288" y="431"/>
      <point x="261" y="446"/>
      <point x="231" y="446" type="curve" smooth="yes"/>
      <point x="165" y="446"/>
      <point x="113" y="345"/>
      <point x="111" y="172" type="curve" smooth="yes"/>
      <point x="110" y="107"/>
      <point x="132" y="79"/>
      <point x="171" y="79" type="curve" smooth="yes"/>
      <point x="203" y="79"/>
      <point x="233" y="99"/>
    </contour>
  </outline>
</glyph>
<glyph name="r" format="1">
  <advance width="326"/>
  <unicode hex="0072"/>
  <outline>
    <contour>
      <point x="348" y="518" type="curve"/>
      <point x="308" y="422" type="line"/>
      <point x="291" y="433"/>
      <point x="274" y="438"/>
      <point x="244" y="438" type="curve" smooth="yes"/>
      <point x="217" y="438"/>
      <point x="190" y="429"/>
      <point x="162" y="397" type="curve"/>
      <point x="92" y="0" type="line"/>
      <point x="-4" y="0" type="line"/>
      <point x="89" y="525" type="line"/>
      <point x="185" y="525" type="line"/>
      <point x="177" y="488" type="line"/>
      <point x="203" y="515"/>
      <point x="241" y="536"/>
      <point x="280" y="536" type="curve" smooth="yes"/>
      <point x="313" y="536"/>
      <point x="334" y="528"/>
    </contour>
  </outline>
</glyph>
<glyph name="s" format="1">
  <advance width="369"/>
  <unicode hex="0073"/>
  <outline>
    <contour>
      <point x="113" y="-11" type="curve" smooth="yes"/>
      <point x="57" y="-11"/>
      <point x="2" y="11"/>
      <point x="-41" y="48" type="curve"/>
      <point x="10" y="128" type="line"/>
      <point x="51" y="96"/>
      <point x="88" y="80"/>
      <point x="123" y="80" type="curve" smooth="yes"/>
      <point x="173" y="80"/>
      <point x="201" y="105"/>
      <point x="201" y="145" type="curve" smooth="yes"/>
      <point x="201" y="173"/>
      <point x="183" y="197"/>
      <point x="123" y="239" type="curve" smooth="yes"/>
      <point x="72" y="275"/>
      <point x="34" y="315"/>
      <point x="34" y="376" type="curve" smooth="yes"/>
      <point x="34" y="476"/>
      <point x="106" y="536"/>
      <point x="204" y="536" type="curve" smooth="yes"/>
      <point x="257" y="536"/>
      <point x="312" y="516"/>
      <point x="346" y="486" type="curve"/>
      <point x="293" y="405" type="line"/>
      <point x="262" y="432"/>
      <point x="231" y="445"/>
      <point x="196" y="445" type="curve" smooth="yes"/>
      <point x="157" y="445"/>
      <point x="134" y="425"/>
      <point x="134" y="394" type="curve" smooth="yes"/>
      <point x="134" y="367"/>
      <point x="152" y="348"/>
      <point x="203" y="310" type="curve" smooth="yes"/>
      <point x="262" y="266"/>
      <point x="300" y="228"/>
      <point x="300" y="164" type="curve" smooth="yes"/>
      <point x="300" y="57"/>
      <point x="229" y="-11"/>
    </contour>
  </outline>
</glyph>
<glyph name="t" format="1">
  <advance width="294"/>
  <unicode hex="0074"/>
  <outline>
    <contour>
      <point x="224" y="102" type="curve"/>
      <point x="197" y="13" type="line"/>
      <point x="172" y="-2"/>
      <point x="146" y="-11"/>
      <point x="110" y="-11" type="curve" smooth="yes"/>
      <point x="40" y="-11"/>
      <point x="15" y="38"/>
      <point x="30" y="123" type="curve" smooth="yes"/>
      <point x="85" y="435" type="line"/>
      <point x="28" y="435" type="line"/>
      <point x="44" y="525" type="line"/>
      <point x="101" y="525" type="line"/>
      <point x="128" y="678" type="line"/>
      <point x="233" y="729" type="line"/>
      <point x="197" y="525" type="line"/>
      <point x="298" y="525" type="line"/>
      <point x="282" y="435" type="line"/>
      <point x="181" y="435" type="line"/>
      <point x="127" y="132" type="line" smooth="yes"/>
      <point x="121" y="99"/>
      <point x="133" y="80"/>
      <point x="159" y="80" type="curve" smooth="yes"/>
      <point x="184" y="80"/>
      <point x="208" y="90"/>
    </contour>
  </outline>
</glyph>
<glyph name="u" format="1">
  <advance width="451"/>
  <unicode hex="0075"/>
  <outline>
    <contour>
      <point x="323" y="0" type="line"/>
      <point x="227" y="0" type="line"/>
      <point x="233" y="36" type="line"/>
      <point x="210" y="10"/>
      <point x="172" y="-11"/>
      <point x="131" y="-11" type="curve" smooth="yes"/>
      <point x="52" y="-11"/>
      <point x="17" y="29"/>
      <point x="17" y="109" type="curve" smooth="yes"/>
      <point x="17" y="131"/>
      <point x="20" y="159"/>
      <point x="25" y="186" type="curve" smooth="yes"/>
      <point x="85" y="525" type="line"/>
      <point x="181" y="525" type="line"/>
      <point x="124" y="202" type="line" smooth="yes"/>
      <point x="120" y="178"/>
      <point x="117" y="158"/>
      <point x="117" y="142" type="curve" smooth="yes"/>
      <point x="117" y="98"/>
      <point x="130" y="80"/>
      <point x="165" y="80" type="curve" smooth="yes"/>
      <point x="195" y="80"/>
      <point x="225" y="97"/>
      <point x="250" y="128" type="curve"/>
      <point x="320" y="525" type="line"/>
      <point x="416" y="525" type="line"/>
    </contour>
  </outline>
</glyph>
<glyph name="v" format="1">
  <advance width="416"/>
  <unicode hex="0076"/>
  <outline>
    <contour>
      <point x="419" y="525" type="line"/>
      <point x="195" y="0" type="line"/>
      <point x="84" y="0" type="line"/>
      <point x="45" y="525" type="line"/>
      <point x="143" y="525" type="line"/>
      <point x="157" y="242" type="line" smooth="yes"/>
      <point x="159" y="208"/>
      <point x="161" y="135"/>
      <point x="160" y="110" type="curve"/>
      <point x="169" y="135"/>
      <point x="197" y="211"/>
      <point x="210" y="244" type="curve" smooth="yes"/>
      <point x="321" y="525" type="line"/>
    </contour>
  </outline>
</glyph>
<glyph name="w" format="1">
  <advance width="597"/>
  <unicode hex="0077"/>
  <outline>
    <contour>
      <point x="595" y="525" type="line"/>
      <point x="394" y="0" type="line"/>
      <point x="304" y="0" type="line"/>
      <point x="295" y="253" type="line" smooth="yes"/>
      <point x="294" y="286"/>
      <point x="293" y="357"/>
      <point x="293" y="382" type="curve"/>
      <point x="285" y="357"/>
      <point x="260" y="285"/>
      <point x="246" y="250" type="curve" smooth="yes"/>
      <point x="149" y="0" type="line"/>
      <point x="59" y="0" type="line"/>
      <point x="46" y="525" type="line"/>
      <point x="140" y="525" type="line"/>
      <point x="139" y="301" type="line" smooth="yes"/>
      <point x="139" y="270"/>
      <point x="137" y="190"/>
      <point x="133" y="148" type="curve"/>
      <point x="142" y="174"/>
      <point x="177" y="273"/>
      <point x="189" y="303" type="curve" smooth="yes"/>
      <point x="277" y="525" type="line"/>
      <point x="364" y="525" type="line"/>
      <point x="374" y="303" type="line" smooth="yes"/>
      <point x="375" y="273"/>
      <point x="378" y="174"/>
      <point x="377" y="148" type="curve"/>
      <point x="385" y="173"/>
      <point x="416" y="271"/>
      <point x="426" y="301" type="curve" smooth="yes"/>
      <point x="503" y="525" type="line"/>
    </contour>
  </outline>
</glyph>
<glyph name="x" format="1">
  <advance width="401"/>
  <unicode hex="0078"/>
  <outline>
    <contour>
      <point x="326" y="0" type="line"/>
      <point x="217" y="0" type="line"/>
      <point x="189" y="111" type="line" smooth="yes"/>
      <point x="183" y="135"/>
      <point x="174" y="180"/>
      <point x="169" y="201" type="curve"/>
      <point x="158" y="180"/>
      <point x="135" y="140"/>
      <point x="115" y="108" type="curve" smooth="yes"/>
      <point x="48" y="0" type="line"/>
      <point x="-61" y="0" type="line"/>
      <point x="121" y="274" type="line"/>
      <point x="43" y="525" type="line"/>
      <point x="151" y="525" type="line"/>
      <point x="173" y="437" type="line" smooth="yes"/>
      <point x="179" y="413"/>
      <point x="190" y="368"/>
      <point x="193" y="347" type="curve"/>
      <point x="204" y="368"/>
      <point x="228" y="409"/>
      <point x="247" y="440" type="curve" smooth="yes"/>
      <point x="299" y="525" type="line"/>
      <point x="408" y="525" type="line"/>
      <point x="241" y="274" type="line"/>
    </contour>
  </outline>
</glyph>
<glyph name="y" format="1">
  <advance width="434"/>
  <unicode hex="0079"/>
  <outline>
    <contour>
      <point x="440" y="525" type="line"/>
      <point x="107" y="-185" type="line"/>
      <point x="13" y="-185" type="line"/>
      <point x="103" y="0" type="line"/>
      <point x="50" y="525" type="line"/>
      <point x="152" y="525" type="line"/>
      <point x="169" y="276" type="line" smooth="yes"/>
      <point x="172" y="236"/>
      <point x="174" y="160"/>
      <point x="174" y="133" type="curve"/>
      <point x="184" y="160"/>
      <point x="215" y="238"/>
      <point x="232" y="277" type="curve" smooth="yes"/>
      <point x="338" y="525" type="line"/>
    </contour>
  </outline>
</glyph>
<glyph name="z" format="1">
  <advance width="387"/>
  <unicode hex="007A"/>
  <outline>
    <contour>
      <point x="291" y="0" type="line"/>
      <point x="-34" y="0" type="line"/>
      <point x="-20" y="82" type="line"/>
      <point x="205" y="363" type="line" smooth="yes"/>
      <point x="229" y="393"/>
      <point x="251" y="421"/>
      <point x="267" y="437" type="curve"/>
      <point x="248" y="436"/>
      <point x="200" y="436"/>
      <point x="174" y="436" type="curve" smooth="yes"/>
      <point x="60" y="436" type="line"/>
      <point x="76" y="525" type="line"/>
      <point x="384" y="525" type="line"/>
      <point x="369" y="444" type="line"/>
      <point x="150" y="162" type="line" smooth="yes"/>
      <point x="126" y="131"/>
      <point x="103" y="104"/>
      <point x="88" y="88" type="curve"/>
      <point x="107" y="89"/>
      <point x="155" y="89"/>
      <point x="181" y="89" type="curve" smooth="yes"/>
      <point x="307" y="89" type="line"/>
    </contour>
  </outline>
</glyph>
<glyph name="braceleft" format="1">
  <advance width="345"/>
  <unicode hex="007B"/>
  <outline>
    <contour>
      <point x="264" y="-110" type="line"/>
      <point x="134" y="-110"/>
      <point x="90" y="-64"/>
      <point x="91" y="26" type="curve" smooth="yes"/>
      <point x="91" y="48"/>
      <point x="94" y="73"/>
      <point x="99" y="101" type="curve" smooth="yes"/>
      <point x="111" y="169" type="line" smooth="yes"/>
      <point x="124" y="240"/>
      <point x="106" y="258"/>
      <point x="76" y="258" type="curve" smooth="yes"/>
      <point x="50" y="258" type="line"/>
      <point x="65" y="342" type="line"/>
      <point x="91" y="342" type="line" smooth="yes"/>
      <point x="121" y="342"/>
      <point x="145" y="360"/>
      <point x="157" y="431" type="curve" smooth="yes"/>
      <point x="169" y="500" type="line" smooth="yes"/>
      <point x="193" y="639"/>
      <point x="246" y="711"/>
      <point x="408" y="711" type="curve"/>
      <point x="396" y="641" type="line"/>
      <point x="304" y="631"/>
      <point x="283" y="593"/>
      <point x="268" y="511" type="curve" smooth="yes"/>
      <point x="258" y="456" type="line" smooth="yes"/>
      <point x="241" y="363"/>
      <point x="215" y="321"/>
      <point x="151" y="300" type="curve"/>
      <point x="207" y="279"/>
      <point x="219" y="238"/>
      <point x="203" y="144" type="curve" smooth="yes"/>
      <point x="194" y="90" type="line" smooth="yes"/>
      <point x="191" y="72"/>
      <point x="189" y="55"/>
      <point x="189" y="41" type="curve" smooth="yes"/>
      <point x="189" y="-7"/>
      <point x="208" y="-32"/>
      <point x="276" y="-40" type="curve"/>
    </contour>
  </outline>
</glyph>
<glyph name="bar" format="1">
  <advance width="246"/>
  <unicode hex="007C"/>
  <outline>
    <contour>
      <point x="81" y="-185" type="line"/>
      <point x="-9" y="-185" type="line"/>
      <point x="165" y="800" type="line"/>
      <point x="255" y="800" type="line"/>
    </contour>
  </outline>
</glyph>
<glyph name="braceright" format="1">
  <advance width="345"/>
  <unicode hex="007D"/>
  <outline>
    <contour>
      <point x="263" y="259" type="line"/>
      <point x="237" y="259" type="line" smooth="yes"/>
      <point x="207" y="259"/>
      <point x="183" y="241"/>
      <point x="171" y="170" type="curve" smooth="yes"/>
      <point x="159" y="101" type="line" smooth="yes"/>
      <point x="135" y="-38"/>
      <point x="82" y="-110"/>
      <point x="-80" y="-110" type="curve"/>
      <point x="-68" y="-40" type="line"/>
      <point x="24" y="-30"/>
      <point x="45" y="8"/>
      <point x="60" y="90" type="curve" smooth="yes"/>
      <point x="70" y="145" type="line" smooth="yes"/>
      <point x="87" y="238"/>
      <point x="113" y="280"/>
      <point x="177" y="301" type="curve"/>
      <point x="121" y="322"/>
      <point x="109" y="363"/>
      <point x="125" y="457" type="curve" smooth="yes"/>
      <point x="134" y="511" type="line" smooth="yes"/>
      <point x="137" y="530"/>
      <point x="139" y="547"/>
      <point x="139" y="562" type="curve" smooth="yes"/>
      <point x="140" y="609"/>
      <point x="119" y="633"/>
      <point x="52" y="641" type="curve"/>
      <point x="64" y="711" type="line"/>
      <point x="192" y="711"/>
      <point x="236" y="666"/>
      <point x="237" y="579" type="curve" smooth="yes"/>
      <point x="237" y="556"/>
      <point x="234" y="529"/>
      <point x="229" y="500" type="curve" smooth="yes"/>
      <point x="217" y="432" type="line" smooth="yes"/>
      <point x="204" y="361"/>
      <point x="221" y="343"/>
      <point x="251" y="343" type="curve" smooth="yes"/>
      <point x="277" y="343" type="line"/>
    </contour>
  </outline>
</glyph>
<glyph name="asciitilde" format="1">
  <advance width="562"/>
  <unicode hex="007E"/>
  <outline>
    <contour>
      <point x="541" y="424" type="line"/>
      <point x="489" y="332"/>
      <point x="440" y="283"/>
      <point x="366" y="283" type="curve" smooth="yes"/>
      <point x="325" y="283"/>
      <point x="299" y="298"/>
      <point x="273" y="317" type="curve" smooth="yes"/>
      <point x="235" y="346"/>
      <point x="216" y="357"/>
      <point x="197" y="357" type="curve" smooth="yes"/>
      <point x="165" y="357"/>
      <point x="148" y="339"/>
      <point x="110" y="281" type="curve"/>
      <point x="44" y="318" type="line"/>
      <point x="96" y="410"/>
      <point x="145" y="459"/>
      <point x="219" y="459" type="curve" smooth="yes"/>
      <point x="260" y="459"/>
      <point x="285" y="447"/>
      <point x="312" y="425" type="curve" smooth="yes"/>
      <point x="345" y="399"/>
      <point x="370" y="385"/>
      <point x="387" y="385" type="curve" smooth="yes"/>
      <point x="419" y="385"/>
      <point x="437" y="403"/>
      <point x="475" y="461" type="curve"/>
    </contour>
  </outline>
</glyph>
<glyph name="cent" format="1">
  <advance width="410"/>
  <unicode hex="00A2"/>
  <outline>
    <contour>
      <point x="354" y="176" type="line"/>
      <point x="319" y="130"/>
      <point x="282" y="101"/>
      <point x="228" y="88" type="curve"/>
      <point x="210" y="-11" type="line"/>
      <point x="117" y="-11" type="line"/>
      <point x="135" y="91" type="line"/>
      <point x="74" y="109"/>
      <point x="42" y="168"/>
      <point x="42" y="266" type="curve" smooth="yes"/>
      <point x="42" y="446"/>
      <point x="109" y="596"/>
      <point x="229" y="621" type="curve"/>
      <point x="244" y="711" type="line"/>
      <point x="337" y="711" type="line"/>
      <point x="322" y="625" type="line"/>
      <point x="374" y="615"/>
      <point x="400" y="579"/>
      <point x="417" y="538" type="curve"/>
      <point x="338" y="479" type="line"/>
      <point x="321" y="520"/>
      <point x="300" y="541"/>
      <point x="266" y="541" type="curve" smooth="yes"/>
      <point x="190" y="541"/>
      <point x="139" y="414"/>
      <point x="139" y="277" type="curve" smooth="yes"/>
      <point x="139" y="211"/>
      <point x="157" y="172"/>
      <point x="204" y="172" type="curve" smooth="yes"/>
      <point x="236" y="172"/>
      <point x="266" y="193"/>
      <point x="295" y="233" type="curve"/>
    </contour>
  </outline>
</glyph>
<glyph name="sterling" format="1">
  <advance width="469"/>
  <unicode hex="00A3"/>
  <outline>
    <contour>
      <point x="500" y="636" type="curve"/>
      <point x="427" y="563" type="line"/>
      <point x="399" y="594"/>
      <point x="366" y="613"/>
      <point x="314" y="613" type="curve" smooth="yes"/>
      <point x="254" y="613"/>
      <point x="218" y="567"/>
      <point x="218" y="502" type="curve" smooth="yes"/>
      <point x="218" y="478"/>
      <point x="222" y="456"/>
      <point x="228" y="434" type="curve" smooth="yes"/>
      <point x="234" y="412"/>
      <point x="238" y="392"/>
      <point x="239" y="370" type="curve"/>
      <point x="353" y="370" type="line"/>
      <point x="338" y="283" type="line"/>
      <point x="229" y="283" type="line"/>
      <point x="211" y="202"/>
      <point x="179" y="154"/>
      <point x="123" y="89" type="curve"/>
      <point x="390" y="89" type="line"/>
      <point x="374" y="0" type="line"/>
      <point x="2" y="0" type="line"/>
      <point x="20" y="102" type="line"/>
      <point x="94" y="169"/>
      <point x="120" y="213"/>
      <point x="135" y="283" type="curve"/>
      <point x="52" y="283" type="line"/>
      <point x="67" y="370" type="line"/>
      <point x="140" y="370" type="line"/>
      <point x="137" y="386"/>
      <point x="133" y="403"/>
      <point x="128" y="420" type="curve" smooth="yes"/>
      <point x="122" y="441"/>
      <point x="118" y="468"/>
      <point x="118" y="497" type="curve" smooth="yes"/>
      <point x="118" y="622"/>
      <point x="199" y="711"/>
      <point x="326" y="711" type="curve" smooth="yes"/>
      <point x="405" y="711"/>
      <point x="460" y="683"/>
    </contour>
  </outline>
</glyph>
<glyph name="yen" format="1">
  <advance width="463"/>
  <unicode hex="00A5"/>
  <outline>
    <contour>
      <point x="480" y="700" type="line"/>
      <point x="250" y="298" type="line"/>
      <point x="234" y="210" type="line"/>
      <point x="336" y="210" type="line"/>
      <point x="320" y="121" type="line"/>
      <point x="218" y="121" type="line"/>
      <point x="197" y="0" type="line"/>
      <point x="103" y="0" type="line"/>
      <point x="124" y="121" type="line"/>
      <point x="22" y="121" type="line"/>
      <point x="38" y="210" type="line"/>
      <point x="140" y="210" type="line"/>
      <point x="155" y="295" type="line"/>
      <point x="61" y="700" type="line"/>
      <point x="171" y="700" type="line"/>
      <point x="198" y="554" type="line" smooth="yes"/>
      <point x="207" y="507"/>
      <point x="218" y="433"/>
      <point x="221" y="398" type="curve"/>
      <point x="236" y="433"/>
      <point x="274" y="506"/>
      <point x="299" y="555" type="curve" smooth="yes"/>
      <point x="374" y="700" type="line"/>
    </contour>
  </outline>
</glyph>
<glyph name="section" format="1">
  <advance width="507"/>
  <unicode hex="00A7"/>
  <outline>
    <contour>
      <point x="333" y="110" type="curve"/>
      <point x="352" y="88"/>
      <point x="366" y="57"/>
      <point x="366" y="19" type="curve" smooth="yes"/>
      <point x="366" y="-89"/>
      <point x="289" y="-164"/>
      <point x="166" y="-164" type="curve" smooth="yes"/>
      <point x="101" y="-164"/>
      <point x="44" y="-142"/>
      <point x="8" y="-104" type="curve"/>
      <point x="73" y="-31" type="line"/>
      <point x="101" y="-58"/>
      <point x="138" y="-71"/>
      <point x="179" y="-71" type="curve" smooth="yes"/>
      <point x="224" y="-71"/>
      <point x="264" y="-46"/>
      <point x="264" y="1" type="curve" smooth="yes"/>
      <point x="264" y="30"/>
      <point x="243" y="56"/>
      <point x="174" y="93" type="curve" smooth="yes"/>
      <point x="92" y="137"/>
      <point x="39" y="180"/>
      <point x="39" y="259" type="curve" smooth="yes"/>
      <point x="39" y="349"/>
      <point x="105" y="402"/>
      <point x="164" y="437" type="curve"/>
      <point x="143" y="461"/>
      <point x="129" y="493"/>
      <point x="129" y="532" type="curve" smooth="yes"/>
      <point x="129" y="641"/>
      <point x="205" y="711"/>
      <point x="327" y="711" type="curve" smooth="yes"/>
      <point x="392" y="711"/>
      <point x="447" y="689"/>
      <point x="488" y="652" type="curve"/>
      <point x="422" y="576" type="line"/>
      <point x="394" y="604"/>
      <point x="356" y="618"/>
      <point x="315" y="618" type="curve" smooth="yes"/>
      <point x="270" y="618"/>
      <point x="233" y="594"/>
      <point x="233" y="549" type="curve" smooth="yes"/>
      <point x="233" y="517"/>
      <point x="253" y="492"/>
      <point x="322" y="455" type="curve" smooth="yes"/>
      <point x="413" y="406"/>
      <point x="456" y="368"/>
      <point x="456" y="290" type="curve" smooth="yes"/>
      <point x="456" y="197"/>
      <point x="397" y="144"/>
    </contour>
    <contour>
      <point x="353" y="272" type="curve" smooth="yes"/>
      <point x="353" y="309"/>
      <point x="330" y="335"/>
      <point x="263" y="370" type="curve" smooth="yes"/>
      <point x="256" y="374"/>
      <point x="235" y="385"/>
      <point x="228" y="388" type="curve"/>
      <point x="185" y="370"/>
      <point x="138" y="330"/>
      <point x="138" y="279" type="curve" smooth="yes"/>
      <point x="138" y="240"/>
      <point x="164" y="214"/>
      <point x="233" y="177" type="curve" smooth="yes"/>
      <point x="244" y="171"/>
      <point x="253" y="166"/>
      <point x="263" y="161" type="curve"/>
      <point x="315" y="184"/>
      <point x="353" y="215"/>
    </contour>
  </outline>
</glyph>
<glyph name="dieresis" format="1">
  <advance width="400"/>
  <unicode hex="00A8"/>
  <outline>
    <contour>
      <point x="411" y="657" type="curve" smooth="yes"/>
      <point x="411" y="624"/>
      <point x="382" y="595"/>
      <point x="349" y="595" type="curve" smooth="yes"/>
      <point x="315" y="595"/>
      <point x="286" y="624"/>
      <point x="286" y="657" type="curve" smooth="yes"/>
      <point x="286" y="691"/>
      <point x="315" y="720"/>
      <point x="349" y="720" type="curve" smooth="yes"/>
      <point x="382" y="720"/>
      <point x="411" y="691"/>
    </contour>
    <contour>
      <point x="234" y="657" type="curve" smooth="yes"/>
      <point x="234" y="624"/>
      <point x="205" y="595"/>
      <point x="172" y="595" type="curve" smooth="yes"/>
      <point x="138" y="595"/>
      <point x="109" y="624"/>
      <point x="109" y="657" type="curve" smooth="yes"/>
      <point x="109" y="691"/>
      <point x="138" y="720"/>
      <point x="172" y="720" type="curve" smooth="yes"/>
      <point x="205" y="720"/>
      <point x="234" y="691"/>
    </contour>
  </outline>
</glyph>
<glyph name="ordfeminine" format="1">
  <advance width="378"/>
  <unicode hex="00AA"/>
  <outline>
    <contour>
      <point x="304" y="277" type="line"/>
      <point x="226" y="277" type="line"/>
      <point x="231" y="306" type="line"/>
      <point x="206" y="281"/>
      <point x="178" y="268"/>
      <point x="140" y="268" type="curve" smooth="yes"/>
      <point x="85" y="268"/>
      <point x="44" y="305"/>
      <point x="44" y="379" type="curve" smooth="yes"/>
      <point x="44" y="494"/>
      <point x="120" y="550"/>
      <point x="210" y="550" type="curve" smooth="yes"/>
      <point x="236" y="550"/>
      <point x="256" y="544"/>
      <point x="272" y="536" type="curve"/>
      <point x="279" y="577" type="line" smooth="yes"/>
      <point x="280" y="583"/>
      <point x="281" y="590"/>
      <point x="281" y="595" type="curve" smooth="yes"/>
      <point x="281" y="623"/>
      <point x="265" y="638"/>
      <point x="234" y="638" type="curve" smooth="yes"/>
      <point x="208" y="638"/>
      <point x="182" y="631"/>
      <point x="147" y="611" type="curve"/>
      <point x="124" y="670" type="line"/>
      <point x="168" y="696"/>
      <point x="213" y="711"/>
      <point x="251" y="711" type="curve" smooth="yes"/>
      <point x="328" y="711"/>
      <point x="362" y="685"/>
      <point x="362" y="625" type="curve" smooth="yes"/>
      <point x="362" y="613"/>
      <point x="360" y="598"/>
      <point x="358" y="584" type="curve" smooth="yes"/>
    </contour>
    <contour>
      <point x="244" y="378" type="curve"/>
      <point x="259" y="463" type="line"/>
      <point x="243" y="474"/>
      <point x="227" y="479"/>
      <point x="197" y="479" type="curve" smooth="yes"/>
      <point x="156" y="479"/>
      <point x="123" y="449"/>
      <point x="123" y="395" type="curve" smooth="yes"/>
      <point x="123" y="357"/>
      <point x="141" y="338"/>
      <point x="170" y="338" type="curve" smooth="yes"/>
      <point x="202" y="338"/>
      <point x="225" y="353"/>
    </contour>
  </outline>
</glyph>
<glyph name="guillemotleft" format="1">
  <advance width="490"/>
  <unicode hex="00AB"/>
  <outline>
    <contour>
      <point x="384" y="0" type="line"/>
      <point x="286" y="0" type="line"/>
      <point x="197" y="262" type="line"/>
      <point x="379" y="525" type="line"/>
      <point x="477" y="525" type="line"/>
      <point x="300" y="263" type="line"/>
    </contour>
    <contour>
      <point x="192" y="0" type="line"/>
      <point x="94" y="0" type="line"/>
      <point x="5" y="262" type="line"/>
      <point x="187" y="525" type="line"/>
      <point x="285" y="525" type="line"/>
      <point x="108" y="263" type="line"/>
    </contour>
  </outline>
</glyph>
<glyph name="degree" format="1">
  <advance width="400"/>
  <unicode hex="00B0"/>
  <outline>
    <contour>
      <point x="388" y="544" type="curve" smooth="yes"/>
      <point x="388" y="448"/>
      <point x="315" y="375"/>
      <point x="220" y="375" type="curve" smooth="yes"/>
      <point x="126" y="375"/>
      <point x="52" y="448"/>
      <point x="52" y="544" type="curve" smooth="yes"/>
      <point x="52" y="637"/>
      <point x="126" y="711"/>
      <point x="220" y="711" type="curve" smooth="yes"/>
      <point x="315" y="711"/>
      <point x="388" y="637"/>
    </contour>
    <contour>
      <point x="309" y="544" type="curve" smooth="yes"/>
      <point x="309" y="592"/>
      <point x="270" y="633"/>
      <point x="220" y="633" type="curve" smooth="yes"/>
      <point x="171" y="633"/>
      <point x="131" y="592"/>
      <point x="131" y="544" type="curve" smooth="yes"/>
      <point x="131" y="493"/>
      <point x="171" y="453"/>
      <point x="220" y="453" type="curve" smooth="yes"/>
      <point x="270" y="453"/>
      <point x="309" y="493"/>
    </contour>
  </outline>
</glyph>
<glyph name="acute" format="1">
  <advance width="400"/>
  <unicode hex="00B4"/>
  <outline>
    <contour>
      <point x="462" y="755" type="line"/>
      <point x="292" y="595" type="line"/>
      <point x="208" y="595" type="line"/>
      <point x="327" y="755" type="line"/>
    </contour>
  </outline>
</glyph>
<glyph name="paragraph" format="1">
  <advance width="607"/>
  <unicode hex="00B6"/>
  <outline>
    <contour>
      <point x="443" y="-185" type="line"/>
      <point x="348" y="-185" type="line"/>
      <point x="488" y="604" type="line"/>
      <point x="409" y="604" type="line"/>
      <point x="269" y="-185" type="line"/>
      <point x="174" y="-185" type="line"/>
      <point x="257" y="285" type="line"/>
      <point x="222" y="285" type="line" smooth="yes"/>
      <point x="137" y="285"/>
      <point x="60" y="333"/>
      <point x="60" y="453" type="curve" smooth="yes"/>
      <point x="61" y="619"/>
      <point x="185" y="700"/>
      <point x="301" y="700" type="curve" smooth="yes"/>
      <point x="599" y="700" type="line"/>
    </contour>
  </outline>
</glyph>
<glyph name="cedilla" format="1">
  <advance width="400"/>
  <unicode hex="00B8"/>
  <outline>
    <contour>
      <point x="135" y="-205" type="curve" smooth="yes"/>
      <point x="95" y="-205"/>
      <point x="68" y="-195"/>
      <point x="39" y="-176" type="curve"/>
      <point x="65" y="-144" type="line"/>
      <point x="86" y="-156"/>
      <point x="113" y="-161"/>
      <point x="135" y="-161" type="curve" smooth="yes"/>
      <point x="171" y="-161"/>
      <point x="191" y="-144"/>
      <point x="191" y="-119" type="curve" smooth="yes"/>
      <point x="191" y="-102"/>
      <point x="181" y="-92"/>
      <point x="169" y="-92" type="curve" smooth="yes"/>
      <point x="153" y="-92"/>
      <point x="143" y="-96"/>
      <point x="131" y="-104" type="curve"/>
      <point x="101" y="-91" type="line"/>
      <point x="136" y="0" type="line"/>
      <point x="183" y="0" type="line"/>
      <point x="162" y="-60" type="line"/>
      <point x="173" y="-54"/>
      <point x="184" y="-51"/>
      <point x="203" y="-51" type="curve" smooth="yes"/>
      <point x="234" y="-51"/>
      <point x="261" y="-73"/>
      <point x="261" y="-113" type="curve" smooth="yes"/>
      <point x="261" y="-179"/>
      <point x="205" y="-205"/>
    </contour>
  </outline>
</glyph>
<glyph name="ordmasculine" format="1">
  <advance width="384"/>
  <unicode hex="00BA"/>
  <outline>
    <contour>
      <point x="184" y="268" type="curve" smooth="yes"/>
      <point x="109" y="268"/>
      <point x="55" y="319"/>
      <point x="56" y="427" type="curve" smooth="yes"/>
      <point x="58" y="600"/>
      <point x="133" y="711"/>
      <point x="242" y="711" type="curve" smooth="yes"/>
      <point x="319" y="711"/>
      <point x="374" y="658"/>
      <point x="372" y="549" type="curve" smooth="yes"/>
      <point x="369" y="380"/>
      <point x="291" y="268"/>
    </contour>
    <contour>
      <point x="291" y="544" type="curve" smooth="yes"/>
      <point x="292" y="604"/>
      <point x="271" y="636"/>
      <point x="232" y="636" type="curve" smooth="yes"/>
      <point x="173" y="636"/>
      <point x="136" y="550"/>
      <point x="134" y="435" type="curve" smooth="yes"/>
      <point x="133" y="372"/>
      <point x="153" y="342"/>
      <point x="193" y="342" type="curve" smooth="yes"/>
      <point x="252" y="342"/>
      <point x="290" y="439"/>
    </contour>
  </outline>
</glyph>
<glyph name="guillemotright" format="1">
  <advance width="490"/>
  <unicode hex="00BB"/>
  <outline>
    <contour>
      <point x="437" y="263" type="line"/>
      <point x="256" y="0" type="line"/>
      <point x="158" y="0" type="line"/>
      <point x="334" y="262" type="line"/>
      <point x="251" y="525" type="line"/>
      <point x="349" y="525" type="line"/>
    </contour>
    <contour>
      <point x="245" y="263" type="line"/>
      <point x="64" y="0" type="line"/>
      <point x="-34" y="0" type="line"/>
      <point x="142" y="262" type="line"/>
      <point x="59" y="525" type="line"/>
      <point x="157" y="525" type="line"/>
    </contour>
  </outline>
</glyph>
<glyph name="Aring" format="1">
  <advance width="494"/>
  <unicode hex="00C5"/>
  <outline>
    <contour>
      <point x="365" y="656" type="curve"/>
      <point x="410" y="0" type="line"/>
      <point x="303" y="0" type="line"/>
      <point x="295" y="185" type="line"/>
      <point x="143" y="185" type="line"/>
      <point x="70" y="0" type="line"/>
      <point x="-34" y="0" type="line"/>
      <point x="248" y="670" type="line"/>
      <point x="222" y="690"/>
      <point x="206" y="721"/>
      <point x="206" y="759" type="curve" smooth="yes"/>
      <point x="206" y="824"/>
      <point x="254" y="872"/>
      <point x="319" y="872" type="curve" smooth="yes"/>
      <point x="384" y="872"/>
      <point x="432" y="824"/>
      <point x="432" y="759" type="curve" smooth="yes"/>
      <point x="432" y="711"/>
      <point x="405" y="672"/>
    </contour>
    <contour>
      <point x="374" y="759" type="curve" smooth="yes"/>
      <point x="374" y="791"/>
      <point x="350" y="815"/>
      <point x="319" y="815" type="curve" smooth="yes"/>
      <point x="288" y="815"/>
      <point x="264" y="791"/>
      <point x="264" y="759" type="curve" smooth="yes"/>
      <point x="264" y="727"/>
      <point x="288" y="703"/>
      <point x="319" y="703" type="curve" smooth="yes"/>
      <point x="350" y="703"/>
      <point x="374" y="727"/>
    </contour>
    <contour>
      <point x="291" y="278" type="line"/>
      <point x="286" y="396" type="line" smooth="yes"/>
      <point x="284" y="442"/>
      <point x="283" y="523"/>
      <point x="283" y="549" type="curve"/>
      <point x="273" y="523"/>
      <point x="244" y="442"/>
      <point x="226" y="396" type="curve" smooth="yes"/>
      <point x="179" y="278" type="line"/>
    </contour>
  </outline>
</glyph>
<glyph name="AE" format="1">
  <advance width="645"/>
  <unicode hex="00C6"/>
  <outline>
    <contour>
      <point x="568" y="0" type="line"/>
      <point x="241" y="0" type="line"/>
      <point x="270" y="165" type="line"/>
      <point x="133" y="165" type="line"/>
      <point x="50" y="0" type="line"/>
      <point x="-49" y="0" type="line"/>
      <point x="316" y="700" type="line"/>
      <point x="678" y="700" type="line"/>
      <point x="662" y="605" type="line"/>
      <point x="441" y="605" type="line"/>
      <point x="408" y="418" type="line"/>
      <point x="549" y="418" type="line"/>
      <point x="532" y="324" type="line"/>
      <point x="391" y="324" type="line"/>
      <point x="351" y="95" type="line"/>
      <point x="585" y="95" type="line"/>
    </contour>
    <contour>
      <point x="348" y="597" type="curve"/>
      <point x="334" y="565"/>
      <point x="299" y="496"/>
      <point x="282" y="462" type="curve" smooth="yes"/>
      <point x="179" y="258" type="line"/>
      <point x="286" y="258" type="line"/>
      <point x="324" y="471" type="line" smooth="yes"/>
      <point x="330" y="503"/>
      <point x="341" y="562"/>
    </contour>
  </outline>
</glyph>
<glyph name="Ccedilla" format="1">
  <advance width="450"/>
  <unicode hex="00C7"/>
  <outline>
    <contour>
      <point x="177" y="-8" type="line"/>
      <point x="79" y="9"/>
      <point x="36" y="99"/>
      <point x="36" y="236" type="curve" smooth="yes"/>
      <point x="36" y="447"/>
      <point x="114" y="711"/>
      <point x="300" y="711" type="curve" smooth="yes"/>
      <point x="417" y="711"/>
      <point x="460" y="640"/>
      <point x="462" y="540" type="curve"/>
      <point x="360" y="515" type="line"/>
      <point x="358" y="577"/>
      <point x="339" y="612"/>
      <point x="288" y="612" type="curve" smooth="yes"/>
      <point x="175" y="612"/>
      <point x="136" y="371"/>
      <point x="136" y="233" type="curve" smooth="yes"/>
      <point x="136" y="153"/>
      <point x="158" y="88"/>
      <point x="221" y="88" type="curve" smooth="yes"/>
      <point x="268" y="88"/>
      <point x="300" y="125"/>
      <point x="323" y="195" type="curve"/>
      <point x="410" y="166" type="line"/>
      <point x="376" y="66"/>
      <point x="321" y="-5"/>
      <point x="224" y="-11" type="curve"/>
      <point x="207" y="-60" type="line"/>
      <point x="218" y="-54"/>
      <point x="229" y="-51"/>
      <point x="248" y="-51" type="curve" smooth="yes"/>
      <point x="279" y="-51"/>
      <point x="306" y="-74"/>
      <point x="306" y="-114" type="curve" smooth="yes"/>
      <point x="306" y="-180"/>
      <point x="250" y="-205"/>
      <point x="180" y="-205" type="curve" smooth="yes"/>
      <point x="140" y="-205"/>
      <point x="113" y="-195"/>
      <point x="84" y="-176" type="curve"/>
      <point x="110" y="-144" type="line"/>
      <point x="131" y="-156"/>
      <point x="158" y="-161"/>
      <point x="180" y="-161" type="curve" smooth="yes"/>
      <point x="216" y="-161"/>
      <point x="235" y="-145"/>
      <point x="235" y="-119" type="curve" smooth="yes"/>
      <point x="235" y="-102"/>
      <point x="226" y="-92"/>
      <point x="214" y="-92" type="curve" smooth="yes"/>
      <point x="198" y="-92"/>
      <point x="188" y="-96"/>
      <point x="176" y="-104" type="curve"/>
      <point x="146" y="-91" type="line"/>
    </contour>
  </outline>
</glyph>
<glyph name="Eth" format="1">
  <advance width="507"/>
  <unicode hex="00D0"/>
  <outline>
    <contour>
      <point x="62" y="321" type="line"/>
      <point x="15" y="321" type="line"/>
      <point x="30" y="411" type="line"/>
      <point x="78" y="411" type="line"/>
      <point x="129" y="700" type="line"/>
      <point x="291" y="700" type="line" smooth="yes"/>
      <point x="417" y="700"/>
      <point x="470" y="608"/>
      <point x="470" y="462" type="curve" smooth="yes"/>
      <point x="470" y="218"/>
      <point x="352" y="0"/>
      <point x="176" y="0" type="curve" smooth="yes"/>
      <point x="6" y="0" type="line"/>
    </contour>
    <contour>
      <point x="177" y="411" type="line"/>
      <point x="257" y="411" type="line"/>
      <point x="242" y="321" type="line"/>
      <point x="161" y="321" type="line"/>
      <point x="121" y="96" type="line"/>
      <point x="184" y="96" type="line" smooth="yes"/>
      <point x="301" y="96"/>
      <point x="368" y="269"/>
      <point x="368" y="457" type="curve" smooth="yes"/>
      <point x="368" y="549"/>
      <point x="341" y="604"/>
      <point x="268" y="604" type="curve" smooth="yes"/>
      <point x="211" y="604" type="line"/>
    </contour>
  </outline>
</glyph>
<glyph name="Oslash" format="1">
  <advance width="509"/>
  <unicode hex="00D8"/>
  <outline>
    <contour>
      <point x="72" y="63" type="curve"/>
      <point x="48" y="106"/>
      <point x="36" y="163"/>
      <point x="36" y="231" type="curve" smooth="yes"/>
      <point x="35" y="447"/>
      <point x="116" y="711"/>
      <point x="299" y="711" type="curve" smooth="yes"/>
      <point x="328" y="711"/>
      <point x="354" y="705"/>
      <point x="375" y="693" type="curve"/>
      <point x="403" y="750" type="line"/>
      <point x="489" y="750" type="line"/>
      <point x="434" y="636" type="line"/>
      <point x="460" y="591"/>
      <point x="472" y="531"/>
      <point x="472" y="459" type="curve" smooth="yes"/>
      <point x="472" y="243"/>
      <point x="388" y="-11"/>
      <point x="205" y="-11" type="curve" smooth="yes"/>
      <point x="176" y="-11"/>
      <point x="151" y="-5"/>
      <point x="130" y="6" type="curve"/>
      <point x="103" y="-50" type="line"/>
      <point x="17" y="-50" type="line"/>
      <point x="17" y="-50"/>
      <point x="72" y="64"/>
    </contour>
    <contour>
      <point x="139" y="202" type="curve"/>
      <point x="330" y="599" type="line"/>
      <point x="319" y="608"/>
      <point x="306" y="613"/>
      <point x="289" y="613" type="curve" smooth="yes"/>
      <point x="185" y="613"/>
      <point x="137" y="397"/>
      <point x="137" y="243" type="curve" smooth="yes"/>
      <point x="137" y="229"/>
      <point x="138" y="215"/>
    </contour>
    <contour>
      <point x="369" y="502" type="curve"/>
      <point x="176" y="102" type="line"/>
      <point x="187" y="92"/>
      <point x="201" y="87"/>
      <point x="218" y="87" type="curve" smooth="yes"/>
      <point x="325" y="87"/>
      <point x="372" y="307"/>
      <point x="372" y="449" type="curve" smooth="yes"/>
      <point x="372" y="468"/>
      <point x="371" y="485"/>
    </contour>
  </outline>
</glyph>
<glyph name="Thorn" format="1">
  <advance width="474"/>
  <unicode hex="00DE"/>
  <outline>
    <contour>
      <point x="289" y="572" type="line" smooth="yes"/>
      <point x="378" y="572"/>
      <point x="453" y="523"/>
      <point x="453" y="410" type="curve" smooth="yes"/>
      <point x="453" y="240"/>
      <point x="328" y="157"/>
      <point x="211" y="157" type="curve" smooth="yes"/>
      <point x="134" y="157" type="line"/>
      <point x="106" y="0" type="line"/>
      <point x="8" y="0" type="line"/>
      <point x="131" y="700" type="line"/>
      <point x="229" y="700" type="line"/>
      <point x="207" y="572" type="line"/>
    </contour>
    <contour>
      <point x="351" y="388" type="curve" smooth="yes"/>
      <point x="351" y="449"/>
      <point x="316" y="476"/>
      <point x="266" y="476" type="curve" smooth="yes"/>
      <point x="190" y="476" type="line"/>
      <point x="150" y="252" type="line"/>
      <point x="229" y="252" type="line" smooth="yes"/>
      <point x="292" y="252"/>
      <point x="351" y="299"/>
    </contour>
  </outline>
</glyph>
<glyph name="germandbls" format="1">
  <advance width="463"/>
  <unicode hex="00DF"/>
  <outline>
    <contour>
      <point x="154" y="0" type="curve" smooth="yes"/>
      <point x="143" y="0" type="line"/>
      <point x="159" y="88" type="line"/>
      <point x="171" y="88" type="line" smooth="yes"/>
      <point x="252" y="88"/>
      <point x="300" y="149"/>
      <point x="300" y="262" type="curve" smooth="yes"/>
      <point x="300" y="316"/>
      <point x="277" y="352"/>
      <point x="215" y="352" type="curve" smooth="yes"/>
      <point x="205" y="352" type="line"/>
      <point x="220" y="439" type="line"/>
      <point x="229" y="439" type="line" smooth="yes"/>
      <point x="294" y="439"/>
      <point x="330" y="502"/>
      <point x="330" y="567" type="curve" smooth="yes"/>
      <point x="330" y="612"/>
      <point x="308" y="637"/>
      <point x="267" y="637" type="curve" smooth="yes"/>
      <point x="214" y="637"/>
      <point x="191" y="601"/>
      <point x="181" y="542" type="curve" smooth="yes"/>
      <point x="60" y="-141" type="line"/>
      <point x="-45" y="-193" type="line"/>
      <point x="83" y="531" type="line" smooth="yes"/>
      <point x="107" y="667"/>
      <point x="162" y="726"/>
      <point x="281" y="726" type="curve" smooth="yes"/>
      <point x="374" y="726"/>
      <point x="427" y="670"/>
      <point x="427" y="580" type="curve" smooth="yes"/>
      <point x="427" y="484"/>
      <point x="383" y="431"/>
      <point x="329" y="402" type="curve"/>
      <point x="373" y="383"/>
      <point x="397" y="344"/>
      <point x="397" y="264" type="curve" smooth="yes"/>
      <point x="397" y="103"/>
      <point x="312" y="0"/>
    </contour>
  </outline>
</glyph>
<glyph name="ae" format="1">
  <advance width="685"/>
  <unicode hex="00E6"/>
  <outline>
    <contour>
      <point x="471" y="536" type="curve" smooth="yes"/>
      <point x="562" y="536"/>
      <point x="627" y="470"/>
      <point x="626" y="334" type="curve" smooth="yes"/>
      <point x="626" y="304"/>
      <point x="621" y="257"/>
      <point x="615" y="230" type="curve"/>
      <point x="340" y="230" type="line"/>
      <point x="331" y="126"/>
      <point x="361" y="81"/>
      <point x="417" y="81" type="curve" smooth="yes"/>
      <point x="458" y="81"/>
      <point x="487" y="94"/>
      <point x="518" y="120" type="curve"/>
      <point x="568" y="59" type="line"/>
      <point x="527" y="19"/>
      <point x="470" y="-11"/>
      <point x="403" y="-11" type="curve" smooth="yes"/>
      <point x="339" y="-11"/>
      <point x="293" y="16"/>
      <point x="272" y="65" type="curve"/>
      <point x="222" y="17"/>
      <point x="179" y="-11"/>
      <point x="109" y="-11" type="curve" smooth="yes"/>
      <point x="41" y="-11"/>
      <point x="-14" y="34"/>
      <point x="-14" y="126" type="curve" smooth="yes"/>
      <point x="-14" y="263"/>
      <point x="77" y="335"/>
      <point x="187" y="335" type="curve" smooth="yes"/>
      <point x="215" y="335"/>
      <point x="248" y="328"/>
      <point x="267" y="318" type="curve"/>
      <point x="276" y="371" type="line" smooth="yes"/>
      <point x="277" y="378"/>
      <point x="278" y="389"/>
      <point x="278" y="397" type="curve" smooth="yes"/>
      <point x="278" y="428"/>
      <point x="263" y="446"/>
      <point x="222" y="446" type="curve" smooth="yes"/>
      <point x="189" y="446"/>
      <point x="156" y="438"/>
      <point x="113" y="413" type="curve"/>
      <point x="85" y="486" type="line"/>
      <point x="136" y="518"/>
      <point x="195" y="536"/>
      <point x="242" y="536" type="curve" smooth="yes"/>
      <point x="315" y="536"/>
      <point x="345" y="512"/>
      <point x="357" y="482" type="curve"/>
      <point x="383" y="517"/>
      <point x="425" y="536"/>
    </contour>
    <contour>
      <point x="529" y="313" type="line"/>
      <point x="530" y="324"/>
      <point x="531" y="335"/>
      <point x="531" y="345" type="curve" smooth="yes"/>
      <point x="531" y="406"/>
      <point x="506" y="446"/>
      <point x="460" y="446" type="curve" smooth="yes"/>
      <point x="411" y="446"/>
      <point x="373" y="403"/>
      <point x="352" y="313" type="curve"/>
    </contour>
    <contour>
      <point x="247" y="132" type="curve"/>
      <point x="245" y="148"/>
      <point x="246" y="170"/>
      <point x="248" y="195" type="curve" smooth="yes"/>
      <point x="249" y="209"/>
      <point x="250" y="221"/>
      <point x="252" y="230" type="curve"/>
      <point x="235" y="241"/>
      <point x="209" y="250"/>
      <point x="176" y="250" type="curve" smooth="yes"/>
      <point x="124" y="250"/>
      <point x="83" y="213"/>
      <point x="83" y="143" type="curve" smooth="yes"/>
      <point x="83" y="97"/>
      <point x="107" y="76"/>
      <point x="142" y="76" type="curve" smooth="yes"/>
      <point x="179" y="76"/>
      <point x="226" y="103"/>
    </contour>
  </outline>
</glyph>
<glyph name="ccedilla" format="1">
  <advance width="380"/>
  <unicode hex="00E7"/>
  <outline>
    <contour>
      <point x="133" y="-9" type="line"/>
      <point x="57" y="4"/>
      <point x="11" y="69"/>
      <point x="11" y="190" type="curve" smooth="yes"/>
      <point x="12" y="408"/>
      <point x="109" y="536"/>
      <point x="233" y="536" type="curve" smooth="yes"/>
      <point x="309" y="536"/>
      <point x="354" y="495"/>
      <point x="377" y="444" type="curve"/>
      <point x="300" y="384" type="line"/>
      <point x="278" y="427"/>
      <point x="260" y="444"/>
      <point x="226" y="444" type="curve" smooth="yes"/>
      <point x="155" y="444"/>
      <point x="108" y="333"/>
      <point x="108" y="193" type="curve" smooth="yes"/>
      <point x="108" y="123"/>
      <point x="128" y="81"/>
      <point x="177" y="81" type="curve" smooth="yes"/>
      <point x="209" y="81"/>
      <point x="241" y="102"/>
      <point x="266" y="139" type="curve"/>
      <point x="326" y="82" type="line"/>
      <point x="289" y="29"/>
      <point x="246" y="-6"/>
      <point x="179" y="-10" type="curve"/>
      <point x="162" y="-60" type="line"/>
      <point x="173" y="-54"/>
      <point x="184" y="-51"/>
      <point x="203" y="-51" type="curve" smooth="yes"/>
      <point x="234" y="-51"/>
      <point x="261" y="-74"/>
      <point x="261" y="-115" type="curve" smooth="yes"/>
      <point x="261" y="-179"/>
      <point x="205" y="-205"/>
      <point x="135" y="-205" type="curve" smooth="yes"/>
      <point x="95" y="-205"/>
      <point x="68" y="-195"/>
      <point x="39" y="-176" type="curve"/>
      <point x="65" y="-144" type="line"/>
      <point x="86" y="-156"/>
      <point x="113" y="-161"/>
      <point x="135" y="-161" type="curve" smooth="yes"/>
      <point x="171" y="-161"/>
      <point x="190" y="-145"/>
      <point x="190" y="-118" type="curve" smooth="yes"/>
      <point x="190" y="-101"/>
      <point x="180" y="-92"/>
      <point x="169" y="-92" type="curve" smooth="yes"/>
      <point x="153" y="-92"/>
      <point x="143" y="-96"/>
      <point x="131" y="-104" type="curve"/>
      <point x="101" y="-91" type="line"/>
    </contour>
  </outline>
</glyph>
<glyph name="eth" format="1">
  <advance width="456"/>
  <unicode hex="00F0"/>
  <outline>
    <contour>
      <point x="399" y="291" type="curve" smooth="yes"/>
      <point x="372" y="76"/>
      <point x="286" y="-11"/>
      <point x="164" y="-11" type="curve" smooth="yes"/>
      <point x="70" y="-11"/>
      <point x="8" y="52"/>
      <point x="8" y="170" type="curve" smooth="yes"/>
      <point x="8" y="355"/>
      <point x="102" y="478"/>
      <point x="222" y="478" type="curve" smooth="yes"/>
      <point x="268" y="478"/>
      <point x="297" y="467"/>
      <point x="323" y="432" type="curve"/>
      <point x="323" y="482"/>
      <point x="312" y="524"/>
      <point x="293" y="557" type="curve"/>
      <point x="249" y="516" type="line"/>
      <point x="200" y="565" type="line"/>
      <point x="245" y="606" type="line"/>
      <point x="224" y="618"/>
      <point x="200" y="626"/>
      <point x="172" y="629" type="curve"/>
      <point x="183" y="711" type="line"/>
      <point x="235" y="706"/>
      <point x="279" y="692"/>
      <point x="312" y="668" type="curve"/>
      <point x="359" y="711" type="line"/>
      <point x="409" y="662" type="line"/>
      <point x="360" y="618" type="line"/>
      <point x="393" y="570"/>
      <point x="408" y="504"/>
      <point x="408" y="420" type="curve" smooth="yes"/>
      <point x="408" y="381"/>
      <point x="405" y="338"/>
    </contour>
    <contour>
      <point x="294" y="232" type="curve" smooth="yes"/>
      <point x="310" y="338"/>
      <point x="282" y="384"/>
      <point x="222" y="384" type="curve" smooth="yes"/>
      <point x="151" y="384"/>
      <point x="106" y="304"/>
      <point x="106" y="179" type="curve" smooth="yes"/>
      <point x="106" y="110"/>
      <point x="131" y="81"/>
      <point x="180" y="81" type="curve" smooth="yes"/>
      <point x="240" y="81"/>
      <point x="280" y="133"/>
    </contour>
  </outline>
</glyph>
<glyph name="oslash" format="1">
  <advance width="451"/>
  <unicode hex="00F8"/>
  <outline>
    <contour>
      <point x="49" y="43" type="line"/>
      <point x="24" y="76"/>
      <point x="10" y="125"/>
      <point x="10" y="190" type="curve" smooth="yes"/>
      <point x="10" y="403"/>
      <point x="108" y="536"/>
      <point x="241" y="536" type="curve" smooth="yes"/>
      <point x="261" y="536"/>
      <point x="279" y="533"/>
      <point x="296" y="527" type="curve"/>
      <point x="320" y="575" type="line"/>
      <point x="402" y="575" type="line"/>
      <point x="356" y="485" type="line"/>
      <point x="382" y="453"/>
      <point x="397" y="406"/>
      <point x="397" y="342" type="curve" smooth="yes"/>
      <point x="397" y="127"/>
      <point x="302" y="-11"/>
      <point x="166" y="-11" type="curve" smooth="yes"/>
      <point x="145" y="-11"/>
      <point x="126" y="-8"/>
      <point x="109" y="-1" type="curve"/>
      <point x="84" y="-50" type="line"/>
      <point x="2" y="-50" type="line"/>
    </contour>
    <contour>
      <point x="109" y="160" type="curve"/>
      <point x="251" y="440" type="line"/>
      <point x="244" y="443"/>
      <point x="236" y="444"/>
      <point x="227" y="444" type="curve" smooth="yes"/>
      <point x="157" y="444"/>
      <point x="107" y="333"/>
      <point x="107" y="194" type="curve" smooth="yes"/>
      <point x="107" y="182"/>
      <point x="108" y="171"/>
    </contour>
    <contour>
      <point x="296" y="368" type="curve"/>
      <point x="153" y="85" type="line"/>
      <point x="160" y="83"/>
      <point x="169" y="81"/>
      <point x="178" y="81" type="curve" smooth="yes"/>
      <point x="252" y="81"/>
      <point x="299" y="204"/>
      <point x="299" y="331" type="curve" smooth="yes"/>
      <point x="299" y="344"/>
      <point x="298" y="357"/>
    </contour>
  </outline>
</glyph>
<glyph name="dotlessi" format="1">
  <advance width="220"/>
  <unicode hex="0131"/>
  <outline>
    <contour>
      <point x="93" y="0" type="line"/>
      <point x="-3" y="0" type="line"/>
      <point x="90" y="525" type="line"/>
      <point x="186" y="525" type="line"/>
    </contour>
  </outline>
</glyph>
<glyph name="Lslash" format="1">
  <advance width="380"/>
  <unicode hex="0141"/>
  <outline>
    <contour>
      <point x="70" y="357" type="line"/>
      <point x="131" y="700" type="line"/>
      <point x="229" y="700" type="line"/>
      <point x="177" y="403" type="line"/>
      <point x="294" y="482" type="line"/>
      <point x="275" y="377" type="line"/>
      <point x="159" y="298" type="line"/>
      <point x="159" y="299"/>
      <point x="123" y="96"/>
      <point x="123" y="96" type="curve"/>
      <point x="339" y="96" type="line"/>
      <point x="322" y="0" type="line"/>
      <point x="8" y="0" type="line"/>
      <point x="52" y="253" type="line"/>
      <point x="3" y="221" type="line"/>
      <point x="22" y="326" type="line"/>
    </contour>
  </outline>
</glyph>
<glyph name="lslash" format="1">
  <advance width="220"/>
  <unicode hex="0142"/>
  <outline>
    <contour>
      <point x="63" y="372" type="line"/>
      <point x="117" y="679" type="line"/>
      <point x="222" y="729" type="line"/>
      <point x="166" y="413" type="line"/>
      <point x="213" y="445" type="line"/>
      <point x="195" y="340" type="line"/>
      <point x="195" y="340"/>
      <point x="148" y="308"/>
      <point x="147" y="308" type="curve"/>
      <point x="93" y="0" type="line"/>
      <point x="-3" y="0" type="line"/>
      <point x="45" y="267" type="line"/>
      <point x="-3" y="235" type="line"/>
      <point x="15" y="340" type="line"/>
    </contour>
  </outline>
</glyph>
<glyph name="OE" format="1">
  <advance width="715"/>
  <unicode hex="0152"/>
  <outline>
    <contour>
      <point x="432" y="633" type="curve"/>
      <point x="443" y="700" type="line"/>
      <point x="748" y="700" type="line"/>
      <point x="732" y="605" type="line"/>
      <point x="505" y="605" type="line"/>
      <point x="472" y="418" type="line"/>
      <point x="619" y="418" type="line"/>
      <point x="602" y="324" type="line"/>
      <point x="455" y="324" type="line"/>
      <point x="415" y="95" type="line"/>
      <point x="655" y="95" type="line"/>
      <point x="638" y="0" type="line"/>
      <point x="320" y="0" type="line"/>
      <point x="331" y="63" type="line"/>
      <point x="300" y="21"/>
      <point x="265" y="-11"/>
      <point x="201" y="-11" type="curve" smooth="yes"/>
      <point x="85" y="-11"/>
      <point x="36" y="96"/>
      <point x="36" y="232" type="curve" smooth="yes"/>
      <point x="36" y="471"/>
      <point x="123" y="711"/>
      <point x="304" y="711" type="curve" smooth="yes"/>
      <point x="365" y="711"/>
      <point x="414" y="676"/>
    </contour>
    <contour>
      <point x="372" y="450" type="curve" smooth="yes"/>
      <point x="372" y="544"/>
      <point x="356" y="613"/>
      <point x="291" y="613" type="curve" smooth="yes"/>
      <point x="183" y="613"/>
      <point x="137" y="389"/>
      <point x="137" y="243" type="curve" smooth="yes"/>
      <point x="137" y="156"/>
      <point x="157" y="87"/>
      <point x="218" y="87" type="curve" smooth="yes"/>
      <point x="325" y="87"/>
      <point x="372" y="296"/>
    </contour>
  </outline>
</glyph>
<glyph name="oe" format="1">
  <advance width="702"/>
  <unicode hex="0153"/>
  <outline>
    <contour>
      <point x="312" y="60" type="curve"/>
      <point x="272" y="13"/>
      <point x="221" y="-11"/>
      <point x="162" y="-11" type="curve" smooth="yes"/>
      <point x="70" y="-11"/>
      <point x="10" y="51"/>
      <point x="10" y="181" type="curve" smooth="yes"/>
      <point x="10" y="401"/>
      <point x="108" y="536"/>
      <point x="243" y="536" type="curve" smooth="yes"/>
      <point x="298" y="536"/>
      <point x="341" y="513"/>
      <point x="368" y="468" type="curve"/>
      <point x="406" y="514"/>
      <point x="455" y="536"/>
      <point x="511" y="536" type="curve" smooth="yes"/>
      <point x="602" y="536"/>
      <point x="667" y="469"/>
      <point x="666" y="333" type="curve" smooth="yes"/>
      <point x="666" y="304"/>
      <point x="663" y="268"/>
      <point x="655" y="230" type="curve"/>
      <point x="380" y="230" type="line"/>
      <point x="371" y="126"/>
      <point x="401" y="81"/>
      <point x="457" y="81" type="curve" smooth="yes"/>
      <point x="498" y="81"/>
      <point x="527" y="94"/>
      <point x="558" y="120" type="curve"/>
      <point x="608" y="59" type="line"/>
      <point x="567" y="19"/>
      <point x="510" y="-11"/>
      <point x="443" y="-11" type="curve" smooth="yes"/>
      <point x="380" y="-11"/>
      <point x="337" y="15"/>
    </contour>
    <contour>
      <point x="569" y="313" type="line"/>
      <point x="576" y="392"/>
      <point x="554" y="446"/>
      <point x="500" y="446" type="curve" smooth="yes"/>
      <point x="451" y="446"/>
      <point x="413" y="403"/>
      <point x="392" y="313" type="curve"/>
    </contour>
    <contour>
      <point x="299" y="336" type="curve" smooth="yes"/>
      <point x="299" y="407"/>
      <point x="274" y="444"/>
      <point x="228" y="444" type="curve" smooth="yes"/>
      <point x="155" y="444"/>
      <point x="107" y="331"/>
      <point x="107" y="193" type="curve" smooth="yes"/>
      <point x="107" y="119"/>
      <point x="130" y="81"/>
      <point x="177" y="81" type="curve" smooth="yes"/>
      <point x="252" y="81"/>
      <point x="299" y="206"/>
    </contour>
  </outline>
</glyph>
<glyph name="florin" format="1">
  <advance width="340"/>
  <unicode hex="0192"/>
  <outline>
    <contour>
      <point x="353" y="619" type="line"/>
      <point x="338" y="623"/>
      <point x="312" y="625"/>
      <point x="298" y="625" type="curve" smooth="yes"/>
      <point x="257" y="625"/>
      <point x="239" y="608"/>
      <point x="233" y="569" type="curve" smooth="yes"/>
      <point x="226" y="525" type="line"/>
      <point x="322" y="525" type="line"/>
      <point x="306" y="437" type="line"/>
      <point x="210" y="437" type="line"/>
      <point x="108" y="-141" type="line"/>
      <point x="3" y="-193" type="line"/>
      <point x="114" y="437" type="line"/>
      <point x="61" y="437" type="line"/>
      <point x="77" y="525" type="line"/>
      <point x="130" y="525" type="line"/>
      <point x="140" y="584" type="line" smooth="yes"/>
      <point x="156" y="678"/>
      <point x="209" y="711"/>
      <point x="285" y="711" type="curve" smooth="yes"/>
      <point x="316" y="711"/>
      <point x="345" y="707"/>
      <point x="368" y="701" type="curve"/>
    </contour>
  </outline>
</glyph>
<glyph name="circumflex" format="1">
  <advance width="400"/>
  <unicode hex="02C6"/>
  <outline>
    <contour>
      <point x="405" y="595" type="line"/>
      <point x="327" y="595" type="line"/>
      <point x="265" y="683" type="line"/>
      <point x="173" y="595" type="line"/>
      <point x="97" y="595" type="line"/>
      <point x="227" y="755" type="line"/>
      <point x="331" y="755" type="line"/>
    </contour>
  </outline>
</glyph>
<glyph name="caron" format="1">
  <advance width="400"/>
  <unicode hex="02C7"/>
  <outline>
    <contour>
      <point x="426" y="755" type="line"/>
      <point x="296" y="595" type="line"/>
      <point x="192" y="595" type="line"/>
      <point x="118" y="755" type="line"/>
      <point x="196" y="755" type="line"/>
      <point x="258" y="667" type="line"/>
      <point x="350" y="755" type="line"/>
    </contour>
  </outline>
</glyph>
<glyph name="breve" format="1">
  <advance width="400"/>
  <unicode hex="02D8"/>
  <outline>
    <contour>
      <point x="438" y="755" type="line"/>
      <point x="408" y="659"/>
      <point x="348" y="595"/>
      <point x="255" y="595" type="curve" smooth="yes"/>
      <point x="166" y="595"/>
      <point x="122" y="654"/>
      <point x="130" y="755" type="curve"/>
      <point x="199" y="755" type="line"/>
      <point x="201" y="703"/>
      <point x="219" y="675"/>
      <point x="271" y="675" type="curve" smooth="yes"/>
      <point x="321" y="675"/>
      <point x="348" y="703"/>
      <point x="369" y="755" type="curve"/>
    </contour>
  </outline>
</glyph>
<glyph name="dotaccent" format="1">
  <advance width="400"/>
  <unicode hex="02D9"/>
  <outline>
    <contour>
      <point x="328" y="659" type="curve" smooth="yes"/>
      <point x="328" y="625"/>
      <point x="298" y="595"/>
      <point x="264" y="595" type="curve" smooth="yes"/>
      <point x="229" y="595"/>
      <point x="199" y="625"/>
      <point x="199" y="659" type="curve" smooth="yes"/>
      <point x="199" y="694"/>
      <point x="229" y="724"/>
      <point x="264" y="724" type="curve" smooth="yes"/>
      <point x="298" y="724"/>
      <point x="328" y="694"/>
    </contour>
  </outline>
</glyph>
<glyph name="ring" format="1">
  <advance width="400"/>
  <unicode hex="02DA"/>
  <outline>
    <contour>
      <point x="375" y="707" type="curve" smooth="yes"/>
      <point x="375" y="642"/>
      <point x="327" y="595"/>
      <point x="262" y="595" type="curve" smooth="yes"/>
      <point x="197" y="595"/>
      <point x="149" y="642"/>
      <point x="149" y="707" type="curve" smooth="yes"/>
      <point x="149" y="772"/>
      <point x="197" y="820"/>
      <point x="262" y="820" type="curve" smooth="yes"/>
      <point x="327" y="820"/>
      <point x="375" y="772"/>
    </contour>
    <contour>
      <point x="317" y="707" type="curve" smooth="yes"/>
      <point x="317" y="739"/>
      <point x="293" y="763"/>
      <point x="262" y="763" type="curve" smooth="yes"/>
      <point x="231" y="763"/>
      <point x="207" y="739"/>
      <point x="207" y="707" type="curve" smooth="yes"/>
      <point x="207" y="675"/>
      <point x="231" y="651"/>
      <point x="262" y="651" type="curve" smooth="yes"/>
      <point x="293" y="651"/>
      <point x="317" y="675"/>
    </contour>
  </outline>
</glyph>
<glyph name="ogonek" format="1">
  <advance width="400"/>
  <unicode hex="02DB"/>
  <outline>
    <contour>
      <point x="245" y="-151" type="line"/>
      <point x="209" y="-176"/>
      <point x="170" y="-194"/>
      <point x="129" y="-194" type="curve" smooth="yes"/>
      <point x="74" y="-194"/>
      <point x="47" y="-172"/>
      <point x="47" y="-131" type="curve" smooth="yes"/>
      <point x="47" y="-73"/>
      <point x="93" y="-34"/>
      <point x="154" y="-1" type="curve"/>
      <point x="204" y="-1" type="line"/>
      <point x="150" y="-47"/>
      <point x="127" y="-74"/>
      <point x="127" y="-109" type="curve" smooth="yes"/>
      <point x="127" y="-129"/>
      <point x="138" y="-142"/>
      <point x="161" y="-142" type="curve" smooth="yes"/>
      <point x="181" y="-142"/>
      <point x="201" y="-135"/>
      <point x="228" y="-118" type="curve"/>
    </contour>
  </outline>
</glyph>
<glyph name="tilde" format="1">
  <advance width="400"/>
  <unicode hex="02DC"/>
  <outline>
    <contour>
      <point x="437" y="716" type="line"/>
      <point x="423" y="634"/>
      <point x="375" y="590"/>
      <point x="321" y="590" type="curve" smooth="yes"/>
      <point x="287" y="590"/>
      <point x="263" y="601"/>
      <point x="222" y="630" type="curve" smooth="yes"/>
      <point x="211" y="638"/>
      <point x="201" y="642"/>
      <point x="191" y="642" type="curve" smooth="yes"/>
      <point x="171" y="642"/>
      <point x="158" y="630"/>
      <point x="148" y="595" type="curve"/>
      <point x="82" y="595" type="line"/>
      <point x="96" y="677"/>
      <point x="146" y="719"/>
      <point x="200" y="719" type="curve" smooth="yes"/>
      <point x="234" y="719"/>
      <point x="256" y="708"/>
      <point x="297" y="679" type="curve" smooth="yes"/>
      <point x="308" y="671"/>
      <point x="320" y="667"/>
      <point x="330" y="667" type="curve" smooth="yes"/>
      <point x="350" y="667"/>
      <point x="361" y="681"/>
      <point x="371" y="716" type="curve"/>
    </contour>
  </outline>
</glyph>
<glyph name="hungarumlaut" format="1">
  <advance width="400"/>
  <unicode hex="02DD"/>
  <outline>
    <contour>
      <point x="557" y="755" type="line"/>
      <point x="384" y="595" type="line"/>
      <point x="302" y="595" type="line"/>
      <point x="427" y="755" type="line"/>
    </contour>
    <contour>
      <point x="367" y="755" type="line"/>
      <point x="194" y="595" type="line"/>
      <point x="112" y="595" type="line"/>
      <point x="237" y="755" type="line"/>
    </contour>
  </outline>
</glyph>
<glyph name="endash" format="1">
  <advance width="400"/>
  <unicode hex="2013"/>
  <outline>
    <contour>
      <point x="350" y="319" type="line"/>
      <point x="30" y="319" type="line"/>
      <point x="47" y="413" type="line"/>
      <point x="367" y="413" type="line"/>
    </contour>
  </outline>
</glyph>
<glyph name="emdash" format="1">
  <advance width="550"/>
  <unicode hex="2014"/>
  <outline>
    <contour>
      <point x="500" y="319" type="line"/>
      <point x="30" y="319" type="line"/>
      <point x="47" y="413" type="line"/>
      <point x="517" y="413" type="line"/>
    </contour>
  </outline>
</glyph>
<glyph name="quoteleft" format="1">
  <advance width="242"/>
  <unicode hex="2018"/>
  <unicode hex="02BB"/>
  <outline>
    <contour>
      <point x="243" y="700" type="line"/>
      <point x="188" y="461" type="line"/>
      <point x="69" y="461" type="line"/>
      <point x="178" y="700" type="line"/>
    </contour>
  </outline>
</glyph>
<glyph name="quoteright" format="1">
  <advance width="242"/>
  <unicode hex="2019"/>
  <unicode hex="02BC"/>
  <outline>
    <contour>
      <point x="245" y="700" type="line"/>
      <point x="136" y="461" type="line"/>
      <point x="71" y="461" type="line"/>
      <point x="126" y="700" type="line"/>
    </contour>
  </outline>
</glyph>
<glyph name="quotedblleft" format="1">
  <advance width="437"/>
  <unicode hex="201C"/>
  <outline>
    <contour>
      <point x="438" y="700" type="line"/>
      <point x="383" y="461" type="line"/>
      <point x="264" y="461" type="line"/>
      <point x="373" y="700" type="line"/>
    </contour>
    <contour>
      <point x="243" y="700" type="line"/>
      <point x="188" y="461" type="line"/>
      <point x="69" y="461" type="line"/>
      <point x="178" y="700" type="line"/>
    </contour>
  </outline>
</glyph>
<glyph name="quotedblright" format="1">
  <advance width="437"/>
  <unicode hex="201D"/>
  <outline>
    <contour>
      <point x="440" y="700" type="line"/>
      <point x="331" y="461" type="line"/>
      <point x="266" y="461" type="line"/>
      <point x="321" y="700" type="line"/>
    </contour>
    <contour>
      <point x="245" y="700" type="line"/>
      <point x="136" y="461" type="line"/>
      <point x="71" y="461" type="line"/>
      <point x="126" y="700" type="line"/>
    </contour>
  </outline>
</glyph>
<glyph name="quotedblbase" format="1">
  <advance width="437"/>
  <unicode hex="201E"/>
  <outline>
    <contour>
      <point x="347" y="126" type="line"/>
      <point x="238" y="-113" type="line"/>
      <point x="173" y="-113" type="line"/>
      <point x="228" y="126" type="line"/>
    </contour>
    <contour>
      <point x="152" y="126" type="line"/>
      <point x="43" y="-113" type="line"/>
      <point x="-22" y="-113" type="line"/>
      <point x="33" y="126" type="line"/>
    </contour>
  </outline>
</glyph>
<glyph name="dagger" format="1">
  <advance width="442"/>
  <unicode hex="2020"/>
  <outline>
    <contour>
      <point x="412" y="384" type="line"/>
      <point x="271" y="384" type="line"/>
      <point x="185" y="-100" type="line"/>
      <point x="89" y="-100" type="line"/>
      <point x="175" y="384" type="line"/>
      <point x="34" y="384" type="line"/>
      <point x="50" y="474" type="line"/>
      <point x="191" y="474" type="line"/>
      <point x="230" y="700" type="line"/>
      <point x="326" y="700" type="line"/>
      <point x="287" y="474" type="line"/>
      <point x="428" y="474" type="line"/>
    </contour>
  </outline>
</glyph>
<glyph name="daggerdbl" format="1">
  <advance width="442"/>
  <unicode hex="2021"/>
  <outline>
    <contour>
      <point x="366" y="127" type="line"/>
      <point x="225" y="127" type="line"/>
      <point x="185" y="-100" type="line"/>
      <point x="89" y="-100" type="line"/>
      <point x="129" y="127" type="line"/>
      <point x="-12" y="127" type="line"/>
      <point x="4" y="217" type="line"/>
      <point x="145" y="217" type="line"/>
      <point x="175" y="384" type="line"/>
      <point x="34" y="384" type="line"/>
      <point x="50" y="474" type="line"/>
      <point x="191" y="474" type="line"/>
      <point x="230" y="700" type="line"/>
      <point x="326" y="700" type="line"/>
      <point x="287" y="474" type="line"/>
      <point x="428" y="474" type="line"/>
      <point x="412" y="384" type="line"/>
      <point x="271" y="384" type="line"/>
      <point x="241" y="217" type="line"/>
      <point x="382" y="217" type="line"/>
    </contour>
  </outline>
</glyph>
<glyph name="ellipsis" format="1">
  <advance width="696"/>
  <unicode hex="2026"/>
  <outline>
    <contour>
      <point x="601" y="59" type="curve" smooth="yes"/>
      <point x="601" y="20"/>
      <point x="570" y="-11"/>
      <point x="531" y="-11" type="curve" smooth="yes"/>
      <point x="492" y="-11"/>
      <point x="461" y="20"/>
      <point x="461" y="59" type="curve" smooth="yes"/>
      <point x="461" y="98"/>
      <point x="492" y="130"/>
      <point x="531" y="130" type="curve" smooth="yes"/>
      <point x="570" y="130"/>
      <point x="601" y="98"/>
    </contour>
    <contour>
      <point x="369" y="59" type="curve" smooth="yes"/>
      <point x="369" y="20"/>
      <point x="338" y="-11"/>
      <point x="299" y="-11" type="curve" smooth="yes"/>
      <point x="260" y="-11"/>
      <point x="229" y="20"/>
      <point x="229" y="59" type="curve" smooth="yes"/>
      <point x="229" y="98"/>
      <point x="260" y="130"/>
      <point x="299" y="130" type="curve" smooth="yes"/>
      <point x="338" y="130"/>
      <point x="369" y="98"/>
    </contour>
    <contour>
      <point x="137" y="59" type="curve" smooth="yes"/>
      <point x="137" y="20"/>
      <point x="106" y="-11"/>
      <point x="67" y="-11" type="curve" smooth="yes"/>
      <point x="28" y="-11"/>
      <point x="-3" y="20"/>
      <point x="-3" y="59" type="curve" smooth="yes"/>
      <point x="-3" y="98"/>
      <point x="28" y="130"/>
      <point x="67" y="130" type="curve" smooth="yes"/>
      <point x="106" y="130"/>
      <point x="137" y="98"/>
    </contour>
  </outline>
</glyph>
<glyph name="perthousand" format="1">
  <advance width="1204"/>
  <unicode hex="2030"/>
  <outline>
    <contour>
      <point x="196" y="276" type="curve" smooth="yes"/>
      <point x="110" y="276"/>
      <point x="66" y="340"/>
      <point x="66" y="436" type="curve" smooth="yes"/>
      <point x="66" y="570"/>
      <point x="121" y="711"/>
      <point x="241" y="711" type="curve" smooth="yes"/>
      <point x="329" y="711"/>
      <point x="372" y="657"/>
      <point x="372" y="555" type="curve" smooth="yes"/>
      <point x="372" y="411"/>
      <point x="315" y="276"/>
    </contour>
    <contour>
      <point x="702" y="700" type="line"/>
      <point x="234" y="0" type="line"/>
      <point x="146" y="0" type="line"/>
      <point x="614" y="700" type="line"/>
    </contour>
    <contour>
      <point x="960" y="-11" type="curve" smooth="yes"/>
      <point x="874" y="-11"/>
      <point x="830" y="53"/>
      <point x="830" y="149" type="curve" smooth="yes"/>
      <point x="830" y="283"/>
      <point x="885" y="424"/>
      <point x="1005" y="424" type="curve" smooth="yes"/>
      <point x="1093" y="424"/>
      <point x="1136" y="370"/>
      <point x="1136" y="268" type="curve" smooth="yes"/>
      <point x="1136" y="124"/>
      <point x="1079" y="-11"/>
    </contour>
    <contour>
      <point x="614" y="-11" type="curve" smooth="yes"/>
      <point x="528" y="-11"/>
      <point x="484" y="53"/>
      <point x="484" y="149" type="curve" smooth="yes"/>
      <point x="484" y="283"/>
      <point x="539" y="424"/>
      <point x="659" y="424" type="curve" smooth="yes"/>
      <point x="747" y="424"/>
      <point x="790" y="370"/>
      <point x="790" y="268" type="curve" smooth="yes"/>
      <point x="790" y="124"/>
      <point x="733" y="-11"/>
    </contour>
    <contour>
      <point x="289" y="545" type="curve" smooth="yes"/>
      <point x="289" y="604"/>
      <point x="273" y="633"/>
      <point x="236" y="633" type="curve" smooth="yes"/>
      <point x="177" y="633"/>
      <point x="150" y="528"/>
      <point x="149" y="442" type="curve" smooth="yes"/>
      <point x="149" y="387"/>
      <point x="164" y="352"/>
      <point x="201" y="352" type="curve" smooth="yes"/>
      <point x="260" y="352"/>
      <point x="289" y="458"/>
    </contour>
    <contour>
      <point x="1053" y="258" type="curve" smooth="yes"/>
      <point x="1053" y="317"/>
      <point x="1037" y="346"/>
      <point x="1000" y="346" type="curve" smooth="yes"/>
      <point x="941" y="346"/>
      <point x="914" y="241"/>
      <point x="913" y="155" type="curve" smooth="yes"/>
      <point x="913" y="100"/>
      <point x="928" y="65"/>
      <point x="965" y="65" type="curve" smooth="yes"/>
      <point x="1024" y="65"/>
      <point x="1053" y="171"/>
    </contour>
    <contour>
      <point x="707" y="258" type="curve" smooth="yes"/>
      <point x="707" y="317"/>
      <point x="691" y="346"/>
      <point x="654" y="346" type="curve" smooth="yes"/>
      <point x="595" y="346"/>
      <point x="568" y="241"/>
      <point x="567" y="155" type="curve" smooth="yes"/>
      <point x="567" y="100"/>
      <point x="582" y="65"/>
      <point x="619" y="65" type="curve" smooth="yes"/>
      <point x="678" y="65"/>
      <point x="707" y="171"/>
    </contour>
  </outline>
</glyph>
<glyph name="guilsinglleft" format="1">
  <advance width="298"/>
  <unicode hex="2039"/>
  <outline>
    <contour>
      <point x="192" y="0" type="line"/>
      <point x="94" y="0" type="line"/>
      <point x="5" y="262" type="line"/>
      <point x="187" y="525" type="line"/>
      <point x="285" y="525" type="line"/>
      <point x="108" y="263" type="line"/>
    </contour>
  </outline>
</glyph>
<glyph name="guilsinglright" format="1">
  <advance width="298"/>
  <unicode hex="203A"/>
  <outline>
    <contour>
      <point x="245" y="263" type="line"/>
      <point x="64" y="0" type="line"/>
      <point x="-34" y="0" type="line"/>
      <point x="142" y="262" type="line"/>
      <point x="59" y="525" type="line"/>
      <point x="157" y="525" type="line"/>
    </contour>
  </outline>
</glyph>
<glyph name="Euro" format="1">
  <advance width="465"/>
  <unicode hex="20AC"/>
  <outline>
    <contour>
      <point x="156" y="390" type="line"/>
      <point x="149" y="365"/>
      <point x="144" y="338"/>
      <point x="142" y="314" type="curve"/>
      <point x="318" y="314" type="line"/>
      <point x="305" y="237" type="line"/>
      <point x="137" y="237" type="line"/>
      <point x="136" y="148"/>
      <point x="158" y="83"/>
      <point x="214" y="83" type="curve" smooth="yes"/>
      <point x="266" y="83"/>
      <point x="297" y="120"/>
      <point x="326" y="195" type="curve"/>
      <point x="412" y="166" type="line"/>
      <point x="367" y="52"/>
      <point x="309" y="-11"/>
      <point x="194" y="-11" type="curve" smooth="yes"/>
      <point x="81" y="-11"/>
      <point x="42" y="85"/>
      <point x="42" y="221" type="curve" smooth="yes"/>
      <point x="42" y="471"/>
      <point x="144" y="711"/>
      <point x="316" y="711" type="curve" smooth="yes"/>
      <point x="434" y="711"/>
      <point x="472" y="640"/>
      <point x="475" y="540" type="curve"/>
      <point x="379" y="514" type="line"/>
      <point x="372" y="587"/>
      <point x="353" y="617"/>
      <point x="303" y="617" type="curve" smooth="yes"/>
      <point x="247" y="617"/>
      <point x="202" y="551"/>
      <point x="177" y="467" type="curve"/>
      <point x="345" y="467" type="line"/>
      <point x="332" y="390" type="line"/>
    </contour>
  </outline>
</glyph>
<glyph name="trademark" format="1">
  <advance width="575"/>
  <unicode hex="2122"/>
  <outline>
    <contour>
      <point x="249" y="643" type="line"/>
      <point x="178" y="643" type="line"/>
      <point x="119" y="307" type="line"/>
      <point x="62" y="307" type="line"/>
      <point x="121" y="643" type="line"/>
      <point x="48" y="643" type="line"/>
      <point x="58" y="700" type="line"/>
      <point x="259" y="700" type="line"/>
    </contour>
    <contour>
      <point x="509" y="307" type="line"/>
      <point x="453" y="307" type="line"/>
      <point x="481" y="466" type="line" smooth="yes"/>
      <point x="485" y="488"/>
      <point x="494" y="533"/>
      <point x="498" y="555" type="curve"/>
      <point x="488" y="533"/>
      <point x="465" y="487"/>
      <point x="453" y="462" type="curve" smooth="yes"/>
      <point x="374" y="298" type="line"/>
      <point x="351" y="462" type="line" smooth="yes"/>
      <point x="348" y="485"/>
      <point x="343" y="528"/>
      <point x="340" y="551" type="curve"/>
      <point x="336" y="528"/>
      <point x="330" y="487"/>
      <point x="326" y="466" type="curve" smooth="yes"/>
      <point x="298" y="307" type="line"/>
      <point x="243" y="307" type="line"/>
      <point x="312" y="700" type="line"/>
      <point x="371" y="700" type="line"/>
      <point x="394" y="536" type="line" smooth="yes"/>
      <point x="397" y="515"/>
      <point x="403" y="478"/>
      <point x="403" y="454" type="curve"/>
      <point x="411" y="479"/>
      <point x="430" y="517"/>
      <point x="440" y="538" type="curve" smooth="yes"/>
      <point x="519" y="700" type="line"/>
      <point x="578" y="700" type="line"/>
    </contour>
  </outline>
</glyph>
<glyph name="arrowleft" format="1">
  <advance width="550"/>
  <unicode hex="2190"/>
  <outline>
    <contour>
      <point x="505" y="298" type="line"/>
      <point x="208" y="298" type="line"/>
      <point x="226" y="241" type="line" smooth="yes"/>
      <point x="230" y="230"/>
      <point x="226" y="224"/>
      <point x="218" y="218" type="curve"/>
      <point x="214" y="216"/>
      <point x="207" y="216"/>
      <point x="199" y="220" type="curve"/>
      <point x="20" y="346" type="line"/>
      <point x="199" y="471" type="line" smooth="yes"/>
      <point x="207" y="476"/>
      <point x="214" y="476"/>
      <point x="218" y="474" type="curve"/>
      <point x="226" y="468"/>
      <point x="229" y="462"/>
      <point x="226" y="452" type="curve" smooth="yes"/>
      <point x="208" y="394" type="line"/>
      <point x="505" y="394" type="line"/>
    </contour>
  </outline>
</glyph>
<glyph name="arrowup" format="1">
  <advance width="356"/>
  <unicode hex="2191"/>
  <outline>
    <contour>
      <point x="306" y="515" type="curve"/>
      <point x="300" y="507"/>
      <point x="294" y="504"/>
      <point x="284" y="507" type="curve" smooth="yes"/>
      <point x="226" y="525" type="line"/>
      <point x="226" y="0" type="line"/>
      <point x="130" y="0" type="line"/>
      <point x="130" y="525" type="line"/>
      <point x="73" y="507" type="line" smooth="yes"/>
      <point x="62" y="503"/>
      <point x="56" y="507"/>
      <point x="50" y="515" type="curve"/>
      <point x="48" y="519"/>
      <point x="48" y="526"/>
      <point x="52" y="534" type="curve"/>
      <point x="178" y="713" type="line"/>
      <point x="303" y="534" type="line" smooth="yes"/>
      <point x="308" y="526"/>
      <point x="308" y="519"/>
    </contour>
  </outline>
</glyph>
<glyph name="arrowboth" format="1">
  <advance width="700"/>
  <unicode hex="2194"/>
  <outline>
    <contour>
      <point x="680" y="346" type="line"/>
      <point x="501" y="220" type="line"/>
      <point x="493" y="216"/>
      <point x="486" y="216"/>
      <point x="482" y="218" type="curve"/>
      <point x="474" y="224"/>
      <point x="470" y="230"/>
      <point x="474" y="241" type="curve" smooth="yes"/>
      <point x="492" y="298" type="line"/>
      <point x="208" y="298" type="line"/>
      <point x="226" y="241" type="line" smooth="yes"/>
      <point x="230" y="230"/>
      <point x="226" y="224"/>
      <point x="218" y="218" type="curve"/>
      <point x="214" y="216"/>
      <point x="207" y="216"/>
      <point x="199" y="220" type="curve"/>
      <point x="20" y="346" type="line"/>
      <point x="199" y="471" type="line" smooth="yes"/>
      <point x="207" y="476"/>
      <point x="214" y="476"/>
      <point x="218" y="474" type="curve"/>
      <point x="226" y="468"/>
      <point x="229" y="462"/>
      <point x="226" y="452" type="curve" smooth="yes"/>
      <point x="208" y="394" type="line"/>
      <point x="492" y="394" type="line"/>
      <point x="474" y="452" type="line" smooth="yes"/>
      <point x="471" y="462"/>
      <point x="474" y="468"/>
      <point x="482" y="474" type="curve"/>
      <point x="486" y="476"/>
      <point x="493" y="476"/>
      <point x="501" y="471" type="curve" smooth="yes"/>
    </contour>
  </outline>
</glyph>
<glyph name="arrowupdn" format="1">
  <advance width="356"/>
  <unicode hex="2195"/>
  <outline>
    <contour>
      <point x="306" y="185" type="curve"/>
      <point x="308" y="181"/>
      <point x="308" y="174"/>
      <point x="303" y="166" type="curve" smooth="yes"/>
      <point x="178" y="-13" type="line"/>
      <point x="52" y="166" type="line"/>
      <point x="48" y="174"/>
      <point x="48" y="181"/>
      <point x="50" y="185" type="curve"/>
      <point x="56" y="193"/>
      <point x="62" y="197"/>
      <point x="73" y="193" type="curve" smooth="yes"/>
      <point x="130" y="175" type="line"/>
      <point x="130" y="525" type="line"/>
      <point x="73" y="507" type="line" smooth="yes"/>
      <point x="62" y="503"/>
      <point x="56" y="507"/>
      <point x="50" y="515" type="curve"/>
      <point x="48" y="519"/>
      <point x="48" y="526"/>
      <point x="52" y="534" type="curve"/>
      <point x="178" y="713" type="line"/>
      <point x="303" y="534" type="line" smooth="yes"/>
      <point x="308" y="526"/>
      <point x="308" y="519"/>
      <point x="306" y="515" type="curve"/>
      <point x="300" y="507"/>
      <point x="294" y="504"/>
      <point x="284" y="507" type="curve" smooth="yes"/>
      <point x="226" y="525" type="line"/>
      <point x="226" y="175" type="line"/>
      <point x="284" y="193" type="line" smooth="yes"/>
      <point x="294" y="196"/>
      <point x="300" y="193"/>
    </contour>
  </outline>
</glyph>
<glyph name="radical" format="1">
  <advance width="490"/>
  <unicode hex="221A"/>
  <outline>
    <contour>
      <point x="505" y="700" type="line"/>
      <point x="274" y="0" type="line"/>
      <point x="175" y="0" type="line"/>
      <point x="52" y="340" type="line"/>
      <point x="159" y="340" type="line"/>
      <point x="188" y="242" type="line" smooth="yes"/>
      <point x="200" y="202"/>
      <point x="217" y="137"/>
      <point x="224" y="106" type="curve"/>
      <point x="232" y="137"/>
      <point x="252" y="206"/>
      <point x="264" y="246" type="curve" smooth="yes"/>
      <point x="402" y="700" type="line"/>
    </contour>
  </outline>
</glyph>
<glyph name="fi" format="1">
  <advance width="489"/>
  <unicode hex="FB01"/>
  <outline>
    <contour>
      <point x="490" y="666" type="curve" smooth="yes"/>
      <point x="490" y="634"/>
      <point x="463" y="607"/>
      <point x="431" y="607" type="curve" smooth="yes"/>
      <point x="398" y="607"/>
      <point x="371" y="634"/>
      <point x="371" y="666" type="curve" smooth="yes"/>
      <point x="371" y="699"/>
      <point x="398" y="726"/>
      <point x="431" y="726" type="curve" smooth="yes"/>
      <point x="463" y="726"/>
      <point x="490" y="699"/>
    </contour>
    <contour>
      <point x="319" y="636" type="line"/>
      <point x="308" y="640"/>
      <point x="294" y="642"/>
      <point x="280" y="642" type="curve" smooth="yes"/>
      <point x="233" y="642"/>
      <point x="215" y="625"/>
      <point x="209" y="586" type="curve" smooth="yes"/>
      <point x="199" y="525" type="line"/>
      <point x="285" y="525" type="line"/>
      <point x="269" y="435" type="line"/>
      <point x="183" y="435" type="line"/>
      <point x="106" y="0" type="line"/>
      <point x="10" y="0" type="line"/>
      <point x="87" y="435" type="line"/>
      <point x="34" y="435" type="line"/>
      <point x="50" y="525" type="line"/>
      <point x="103" y="525" type="line"/>
      <point x="116" y="599" type="line" smooth="yes"/>
      <point x="131" y="685"/>
      <point x="188" y="726"/>
      <point x="256" y="726" type="curve" smooth="yes"/>
      <point x="289" y="726"/>
      <point x="312" y="723"/>
      <point x="333" y="716" type="curve"/>
    </contour>
    <contour>
      <point x="362" y="0" type="line"/>
      <point x="266" y="0" type="line"/>
      <point x="359" y="525" type="line"/>
      <point x="455" y="525" type="line"/>
    </contour>
  </outline>
</glyph>
<glyph name="fl" format="1">
  <advance width="489"/>
  <unicode hex="FB02"/>
  <outline>
    <contour>
      <point x="362" y="0" type="line"/>
      <point x="266" y="0" type="line"/>
      <point x="386" y="679" type="line"/>
      <point x="491" y="729" type="line"/>
    </contour>
    <contour>
      <point x="319" y="636" type="line"/>
      <point x="308" y="640"/>
      <point x="294" y="642"/>
      <point x="280" y="642" type="curve" smooth="yes"/>
      <point x="233" y="642"/>
      <point x="215" y="625"/>
      <point x="209" y="586" type="curve" smooth="yes"/>
      <point x="199" y="525" type="line"/>
      <point x="285" y="525" type="line"/>
      <point x="269" y="435" type="line"/>
      <point x="183" y="435" type="line"/>
      <point x="106" y="0" type="line"/>
      <point x="10" y="0" type="line"/>
      <point x="87" y="435" type="line"/>
      <point x="34" y="435" type="line"/>
      <point x="50" y="525" type="line"/>
      <point x="103" y="525" type="line"/>
      <point x="116" y="599" type="line" smooth="yes"/>
      <point x="131" y="685"/>
      <point x="188" y="726"/>
      <point x="256" y="726" type="curve" smooth="yes"/>
      <point x="289" y="726"/>
      <point x="312" y="723"/>
      <point x="333" y="716" type="curve"/>
    </contour>
  </outline>
</glyph>
<glyph name="a.salt" format="1">
  <advance width="451"/>
  <outline>
    <contour>
      <point x="327" y="0" type="line"/>
      <point x="231" y="0" type="line"/>
      <point x="237" y="35" type="line"/>
      <point x="207" y="8"/>
      <point x="179" y="-11"/>
      <point x="132" y="-11" type="curve" smooth="yes"/>
      <point x="56" y="-11"/>
      <point x="12" y="41"/>
      <point x="12" y="152" type="curve" smooth="yes"/>
      <point x="12" y="383"/>
      <point x="107" y="536"/>
      <point x="235" y="536" type="curve" smooth="yes"/>
      <point x="272" y="536"/>
      <point x="297" y="524"/>
      <point x="319" y="497" type="curve"/>
      <point x="324" y="525" type="line"/>
      <point x="420" y="525" type="line"/>
    </contour>
    <contour>
      <point x="253" y="127" type="curve"/>
      <point x="301" y="399" type="line"/>
      <point x="286" y="431"/>
      <point x="258" y="446"/>
      <point x="228" y="446" type="curve" smooth="yes"/>
      <point x="161" y="446"/>
      <point x="111" y="338"/>
      <point x="111" y="169" type="curve" smooth="yes"/>
      <point x="111" y="107"/>
      <point x="130" y="79"/>
      <point x="169" y="79" type="curve" smooth="yes"/>
      <point x="201" y="79"/>
      <point x="231" y="99"/>
    </contour>
  </outline>
</glyph>
<glyph name="macron" format="1">
  <advance width="400"/>
  <outline>
    <contour>
      <point x="378" y="610" type="line"/>
      <point x="118" y="610" type="line"/>
      <point x="133" y="695" type="line"/>
      <point x="393" y="695" type="line"/>
    </contour>
  </outline>
</glyph>
<glyph name="registered" format="1">
  <advance width="646"/>
  <outline>
    <contour>
      <point x="601" y="350" type="curve" smooth="yes"/>
      <point x="601" y="131"/>
      <point x="484" y="-11"/>
      <point x="323" y="-11" type="curve" smooth="yes"/>
      <point x="162" y="-11"/>
      <point x="45" y="131"/>
      <point x="45" y="350" type="curve" smooth="yes"/>
      <point x="45" y="569"/>
      <point x="162" y="711"/>
      <point x="323" y="711" type="curve" smooth="yes"/>
      <point x="484" y="711"/>
      <point x="601" y="569"/>
    </contour>
    <contour>
      <point x="543" y="349" type="curve" smooth="yes"/>
      <point x="543" y="533"/>
      <point x="458" y="656"/>
      <point x="323" y="656" type="curve" smooth="yes"/>
      <point x="188" y="656"/>
      <point x="103" y="534"/>
      <point x="103" y="351" type="curve" smooth="yes"/>
      <point x="103" y="167"/>
      <point x="190" y="44"/>
      <point x="325" y="44" type="curve" smooth="yes"/>
      <point x="460" y="44"/>
      <point x="543" y="166"/>
    </contour>
    <contour>
      <point x="447" y="443" type="curve" smooth="yes"/>
      <point x="447" y="389"/>
      <point x="421" y="356"/>
      <point x="384" y="341" type="curve"/>
      <point x="446" y="161" type="line"/>
      <point x="382" y="161" type="line"/>
      <point x="324" y="330" type="line"/>
      <point x="282" y="330" type="line"/>
      <point x="282" y="161" type="line"/>
      <point x="224" y="161" type="line"/>
      <point x="224" y="555" type="line"/>
      <point x="335" y="555" type="line" smooth="yes"/>
      <point x="393" y="555"/>
      <point x="447" y="523"/>
    </contour>
    <contour>
      <point x="387" y="443" type="curve" smooth="yes"/>
      <point x="387" y="483"/>
      <point x="364" y="498"/>
      <point x="333" y="498" type="curve" smooth="yes"/>
      <point x="282" y="498" type="line"/>
      <point x="282" y="386" type="line"/>
      <point x="331" y="386" type="line" smooth="yes"/>
      <point x="366" y="386"/>
      <point x="387" y="403"/>
    </contour>
  </outline>
</glyph>
